<svg width="32" height="33" viewBox="0 0 32 33" fill="none" xmlns="http://www.w3.org/2000/svg">
<g id="Group 39610">
<path id="Ellipse 94" d="M21.5202 3.41537C22.0165 2.28217 21.5022 0.94448 20.3108 0.611166C17.4964 -0.17625 14.5048 -0.18148 11.6642 0.618214C8.101 1.62133 4.99587 3.8289 2.87787 6.86477C0.759865 9.90065 -0.239965 13.577 0.048736 17.2674C0.337437 20.9578 1.89681 24.4339 4.46115 27.1035C7.02549 29.7731 10.4361 31.4709 14.112 31.9077C17.7878 32.3446 21.5013 31.4933 24.6199 29.4991C27.7385 27.5048 30.0691 24.4909 31.2146 20.9709C32.1278 18.1648 32.2428 15.1754 31.5692 12.3316C31.284 11.1277 29.9681 10.5601 28.8159 11.0104C27.6636 11.4608 27.1185 12.7606 27.3377 13.9781C27.6727 15.8387 27.5466 17.7651 26.9545 19.5845C26.1297 22.1189 24.4517 24.2889 22.2063 25.7248C19.961 27.1607 17.2872 27.7735 14.6406 27.459C11.994 27.1445 9.53835 25.9221 7.69202 24C5.8457 22.0779 4.72295 19.5751 4.51509 16.918C4.30722 14.2609 5.0271 11.6139 6.55206 9.4281C8.07702 7.24227 10.3127 5.65283 12.8782 4.93058C14.72 4.41208 16.6499 4.36355 18.4955 4.77305C19.7033 5.04103 21.0239 4.54857 21.5202 3.41537Z" fill="black"/>
<path id="Vector" d="M9.95142 15.0352L16.0742 20.3885L27.7686 3.88052" stroke="#17BF6C" stroke-width="4.15576" stroke-linecap="round" stroke-linejoin="round"/>
</g>
</svg>
