<svg width="19" height="18" viewBox="0 0 19 18" fill="none" xmlns="http://www.w3.org/2000/svg">
<path d="M14.1147 7.5424L8.848 2.27573C8.60512 2.02426 8.47073 1.68746 8.47377 1.33786C8.47681 0.988265 8.61703 0.653848 8.86424 0.406638C9.11145 0.159427 9.44587 0.0192016 9.79547 0.0161637C10.1451 0.0131258 10.4819 0.147518 10.7333 0.390396L18.276 7.93306C18.4002 8.0566 18.4988 8.20348 18.5661 8.36526C18.6334 8.52704 18.668 8.70052 18.668 8.87573C18.668 9.05094 18.6334 9.22442 18.5661 9.3862C18.4988 9.54798 18.4002 9.69486 18.276 9.8184L10.7333 17.3611C10.6103 17.4884 10.4632 17.59 10.3005 17.6599C10.1379 17.7297 9.96291 17.7665 9.78587 17.7681C9.60883 17.7696 9.43326 17.7359 9.26939 17.6688C9.10553 17.6018 8.95666 17.5028 8.83147 17.3776C8.70628 17.2524 8.60728 17.1035 8.54024 16.9397C8.4732 16.7758 8.43946 16.6002 8.441 16.4232C8.44254 16.2462 8.47932 16.0712 8.5492 15.9085C8.61908 15.7459 8.72065 15.5987 8.848 15.4757L14.1147 10.2091H1.33333C0.979711 10.2091 0.640573 10.0686 0.390524 9.81854C0.140476 9.56849 0 9.22935 0 8.87573C0 8.52211 0.140476 8.18297 0.390524 7.93292C0.640573 7.68287 0.979711 7.5424 1.33333 7.5424H14.1147V7.5424Z" fill="#2563EB"/>
</svg>
