<svg width="37" height="36" viewBox="0 0 37 36" fill="none" xmlns="http://www.w3.org/2000/svg">
<path d="M35.9374 34.875H35.3749V6.15957C35.3749 5.54158 34.9398 4.78766 34.4037 4.47592C34.4037 4.47592 30.3558 2.44784 30.3476 2.44373C29.7763 2.15754 29.0298 2.18665 28.5367 2.62362L26.6518 4.29602C26.1879 4.70717 25.8124 5.54158 25.8124 6.15957V18.6024C26.2382 18.4036 26.7576 18.2906 27.298 18.2906C27.6613 18.2906 28.2016 18.3403 28.7121 18.5768L30.0312 19.1873V17.0393L34.2499 19.2593V21.3629L32.8604 20.6315C33.023 20.9076 33.1249 22.0419 33.1249 22.0419L34.2499 22.6338V24.7374L33.1249 24.1455V25.4163L34.2499 26.0085V28.1121L33.1249 27.5199V28.7911L34.2499 29.3832V31.4868L33.1249 30.8947V32.1658L34.2499 32.7577V34.875H31.9999V22.4646C31.9999 21.8436 31.5429 21.1284 30.979 20.8672L28.2396 19.5997C27.9762 19.4777 27.6389 19.4175 27.298 19.4175C26.9091 19.4175 26.5155 19.4958 26.2225 19.6496L23.9961 20.8172C23.446 21.1059 22.9999 21.8436 22.9999 22.4646V34.875H21.8749V3.93126C21.8749 3.31 21.4402 2.55193 20.9037 2.23829L17.4101 0.195113C16.8635 -0.124605 16.0723 -0.0424825 15.5993 0.376113L13.7143 2.05755C13.2507 2.47092 12.875 3.31 12.875 3.93126V34.875H11.75V9.2316C11.75 8.60622 11.3015 7.86822 10.7483 7.5834L8.35603 6.35127C7.91218 6.12249 7.31973 6.12989 6.87231 6.34826C6.75065 6.40757 6.60726 6.48889 6.51113 6.58502L2.46818 10.1795C2.00238 10.5939 1.625 11.4363 1.625 12.0617V34.875H1.0625C0.751861 34.875 0.5 35.1269 0.5 35.4375C0.5 35.7481 0.751861 36 1.0625 36H35.9374C36.248 36 36.4999 35.7481 36.4999 35.4375C36.4999 35.1269 36.248 34.875 35.9374 34.875ZM6.96873 34.875H5.10353L6.96873 33.2971V34.875ZM6.96873 31.8238L3.37099 34.8676L3.37731 34.875H2.74999V33.3493L6.96873 29.7636V31.8238ZM6.96873 28.2879L2.74999 31.8735V29.6936L6.96873 26.1079V28.2879ZM6.96873 24.6322L2.74999 28.2176V26.0376L6.96873 22.452V24.6322ZM6.96873 20.9762L2.74999 24.5619V22.3817L6.96873 18.7963V20.9762ZM6.96873 17.3203L2.74999 20.9059V18.726L6.96873 15.1403V17.3203ZM6.96873 13.6646L2.74999 17.25V15.07L6.96873 11.4846V13.6646ZM6.96873 10.0086L2.74999 13.5943V12.0617C2.74999 11.7568 2.98949 11.2215 3.21583 11.0202L6.96873 7.68337V10.0086ZM20.7499 34.875H17.375V32.0405L20.7499 33.9387V34.875ZM20.7499 32.6478L17.375 30.7496V28.6658L20.7499 30.564V32.6478ZM20.7499 29.2734L17.375 27.3749V25.2911L20.7499 27.1895V29.2734ZM20.7499 25.8987L17.375 24.0005V21.9167L20.7499 23.8148V25.8987ZM20.7499 22.5239L17.375 20.6258V18.542L20.7499 20.4401V22.5239ZM20.7499 19.1495L17.375 17.2511V15.1672L20.7499 17.0657V19.1495ZM20.7499 15.7748L17.375 13.8766V11.7928L20.7499 13.691V15.7748ZM20.7499 12.4001L17.375 10.5019V8.41808L20.7499 10.3162V12.4001ZM20.7499 9.02561L17.375 7.12747V5.04335L20.7499 6.94178V9.02561ZM20.7499 5.65091L17.375 3.75275V1.47804L20.3357 3.20946C20.5255 3.32044 20.7499 3.71155 20.7499 3.93126V5.65091ZM26.6562 34.875H24.1249V22.4646C24.1249 22.2608 24.3383 21.9082 24.5188 21.8134L26.6562 20.6922V34.875ZM34.2499 17.9882L30.0312 15.7679V13.6646L34.2499 15.8846V17.9882ZM34.2499 14.6138L30.0312 12.3932V10.2899L34.2499 12.5099V14.6138ZM34.2499 11.2391L30.0312 9.01876V6.91543L34.2499 9.13547V11.2391ZM34.2499 7.86437L30.0312 5.64404V3.54344L33.8574 5.4603C34.0417 5.58387 34.2499 5.95083 34.2499 6.15957V7.86437Z" fill="#ECD996"/>
</svg>
