<svg width="50" height="56" viewBox="0 0 50 56" fill="none" xmlns="http://www.w3.org/2000/svg">
<path d="M4.66797 42.0144C4.66797 32.6717 4.66797 23.335 4.66797 13.9924C4.93288 13.4684 5.30376 13.1388 5.92189 13.0328C8.29434 12.6148 10.6609 12.1557 13.0275 11.7082C17.2013 10.9253 21.3752 10.1364 25.5549 9.35934C26.385 9.20628 27.062 9.74788 27.0797 10.5897C27.0973 11.3138 27.0855 12.0438 27.0855 12.7679C27.0855 13.2683 27.0855 13.7687 27.0855 14.3044C27.2798 14.3044 27.4329 14.3044 27.5859 14.3044C32.7194 14.3044 37.8587 14.3044 42.9921 14.3044C44.0694 14.3044 44.5227 14.7577 44.5227 15.8468C44.5227 23.9531 44.5227 32.0595 44.5227 40.16C44.5227 41.2491 44.0753 41.7023 42.998 41.7023C37.8469 41.7023 32.7017 41.7023 27.5506 41.7023C27.4034 41.7023 27.2504 41.7023 27.0855 41.7023C27.0855 42.9386 27.0914 44.1219 27.0855 45.2993C27.0797 46.2647 26.4203 46.8063 25.4784 46.6356C19.0263 45.4288 12.5742 44.2161 6.11616 43.021C5.45682 42.8974 4.93877 42.6501 4.66797 42.0144ZM41.9972 39.1886C41.9972 31.7122 41.9972 24.2593 41.9972 16.8122C37.0169 16.8122 32.0718 16.8122 27.1032 16.8122C27.1032 17.6364 27.1032 18.4488 27.1032 19.2848C28.3159 19.2848 29.511 19.2789 30.7001 19.2848C31.5008 19.2907 32.0541 19.8028 32.06 20.5269C32.06 21.251 31.5067 21.7691 30.7119 21.775C29.6464 21.7808 28.5867 21.775 27.5212 21.775C27.3858 21.775 27.2445 21.775 27.1091 21.775C27.1091 22.6345 27.1091 23.441 27.1091 24.2651C28.3041 24.2651 29.4698 24.2651 30.6354 24.2651C31.4949 24.2651 32.06 24.7714 32.0541 25.5191C32.0483 26.2549 31.4831 26.7494 30.653 26.7494C29.6052 26.7553 28.5514 26.7494 27.5035 26.7494C27.3681 26.7494 27.2327 26.7494 27.1032 26.7494C27.1032 27.6089 27.1032 28.4096 27.1032 29.2396C27.2622 29.2396 27.4034 29.2396 27.5447 29.2396C28.6103 29.2396 29.6699 29.2337 30.7355 29.2396C31.5067 29.2455 32.0541 29.7636 32.06 30.47C32.0659 31.1941 31.5125 31.718 30.7178 31.7239C29.876 31.7298 29.0341 31.7239 28.1864 31.7239C27.8273 31.7239 27.4682 31.7239 27.1032 31.7239C27.1032 32.5775 27.1032 33.3841 27.1032 34.2141C28.3218 34.2141 29.511 34.2082 30.706 34.2141C31.5008 34.22 32.06 34.7381 32.0541 35.4622C32.0483 36.1863 31.4949 36.6984 30.6943 36.6984C29.6287 36.7043 28.5691 36.6984 27.5035 36.6984C27.3681 36.6984 27.2327 36.6984 27.0914 36.6984C27.0914 37.552 27.0914 38.3527 27.0914 39.1709C32.0718 39.1886 37.0227 39.1886 41.9972 39.1886ZM17.8607 27.6678C17.9431 27.5618 17.9961 27.4853 18.049 27.4147C19.2794 25.8311 20.5157 24.2416 21.7519 22.658C22.0227 22.3166 22.1817 21.9457 22.0698 21.5042C21.9403 20.992 21.6107 20.6623 21.0926 20.5622C20.5569 20.4563 20.133 20.68 19.8093 21.1038C18.7025 22.5285 17.5958 23.9472 16.4949 25.3719C16.4007 25.4896 16.3065 25.6074 16.1947 25.7428C16.0769 25.6191 15.9886 25.525 15.9062 25.4308C14.976 24.3652 14.0518 23.2997 13.1099 22.2459C12.5977 21.669 11.8383 21.6278 11.3085 22.1105C10.7904 22.5815 10.7551 23.3056 11.2437 23.8884C11.5852 24.2946 11.9443 24.689 12.2916 25.0893C13.0628 25.9724 13.8399 26.8613 14.6287 27.762C14.299 28.1918 13.9812 28.598 13.6633 29.01C12.845 30.0638 12.0149 31.1117 11.2084 32.1713C10.6609 32.8954 10.8669 33.7726 11.6499 34.1199C12.2151 34.3731 12.7743 34.2023 13.2158 33.6372C14.1578 32.4304 15.0938 31.2235 16.0298 30.0167C16.1122 29.9107 16.2005 29.8107 16.3006 29.687C16.5125 29.9284 16.695 30.1345 16.8717 30.3346C17.8783 31.4826 18.8791 32.6423 19.8976 33.7844C20.3979 34.3436 21.1456 34.3848 21.6695 33.9257C22.1994 33.4606 22.2406 32.7306 21.7637 32.1478C21.5989 31.9476 21.4223 31.7534 21.2516 31.5591C20.133 30.264 19.0086 28.9806 17.8607 27.6678Z" fill="#E2C86D"/>
<path d="M40.2285 20.9948C39.759 20.9948 39.2896 21.0058 38.8133 20.9948C37.9573 20.9783 37.3291 20.4723 37.336 19.8233C37.3429 19.1909 37.9642 18.6904 38.7995 18.6794C39.7729 18.6629 40.7462 18.6629 41.7127 18.6794C42.548 18.6959 43.1624 19.2019 43.1693 19.8343C43.1693 20.4833 42.5411 20.9838 41.6851 21.0003C41.2018 21.0003 40.7117 20.9948 40.2285 20.9948Z" fill="#E2C86D"/>
<path d="M40.2561 26.8284C39.7728 26.8284 39.2827 26.8394 38.7995 26.8284C37.9711 26.8064 37.3498 26.3113 37.336 25.6787C37.3291 25.046 37.9435 24.5234 38.7719 24.5124C39.759 24.4959 40.7462 24.4959 41.7333 24.5124C42.5617 24.5289 43.1761 25.046 43.1692 25.6787C43.1623 26.3113 42.541 26.8119 41.7126 26.8284C41.2294 26.8394 40.7462 26.8284 40.2561 26.8284Z" fill="#E2C86D"/>
<path d="M40.2282 32.6619C39.745 32.6619 39.2549 32.6729 38.7718 32.6619C37.9434 32.64 37.3291 32.1293 37.336 31.4977C37.3429 30.8772 37.9434 30.3664 38.7441 30.35C39.745 30.328 40.7528 30.328 41.7537 30.35C42.582 30.3664 43.1895 30.8936 43.1688 31.5307C43.155 32.1512 42.5406 32.64 41.733 32.6619C41.2291 32.6729 40.7321 32.6619 40.2282 32.6619Z" fill="#E2C86D"/>
<path d="M40.2422 37.3284C39.759 37.3284 39.2689 37.3394 38.7856 37.3284C37.9572 37.3064 37.3359 36.8058 37.3359 36.1732C37.3359 35.5405 37.9503 35.0289 38.7787 35.0124C39.7659 34.9959 40.7531 34.9959 41.7402 35.0124C42.5686 35.0289 43.1761 35.5515 43.1692 36.1842C43.1554 36.8168 42.5341 37.3119 41.6988 37.3284C41.2156 37.3394 40.7254 37.3284 40.2422 37.3284Z" fill="#E2C86D"/>
</svg>
