<svg width="54" height="48" viewBox="0 0 54 48" fill="none" xmlns="http://www.w3.org/2000/svg">
<path d="M48.4938 29.8744C48.4763 29.8964 48.4543 29.9184 48.4455 29.9404C47.9137 31.9885 46.6655 32.9554 44.547 32.9598C43.501 32.9598 42.455 32.9598 41.3606 32.9598C41.198 28.4197 39.2466 24.8816 35.4492 22.3105C35.7085 22.0644 35.9415 21.8139 36.2052 21.5985C37.0798 20.8953 38.0863 20.469 39.207 20.4426C40.7013 20.4074 42.2045 20.3679 43.6944 20.4777C46.0414 20.6535 47.9796 22.4951 48.4103 24.8157C48.4323 24.9388 48.4675 25.0574 48.4982 25.1761C48.4938 26.7407 48.4938 28.3054 48.4938 29.8744Z" fill="#E2C86D"/>
<path d="M5.5166 25.1708C5.73196 24.5292 5.86381 23.8391 6.18026 23.2502C7.1252 21.5185 8.61953 20.5296 10.5973 20.4373C12.1136 20.367 13.6475 20.3802 15.1594 20.4857C16.5175 20.578 17.6339 21.2636 18.548 22.314C14.7727 24.8632 12.8124 28.3924 12.6454 32.9545C12.1839 32.9545 11.74 32.9589 11.2961 32.9545C10.4567 32.9457 9.61722 32.9897 8.78215 32.915C7.13839 32.7699 5.94732 31.6712 5.58253 30.0626C5.56934 29.9966 5.53418 29.9351 5.50781 29.8736C5.5166 28.3045 5.5166 26.7399 5.5166 25.1708Z" fill="#E2C86D"/>
<path d="M27.0031 40.1148C25.2538 40.1148 23.509 40.1192 21.7598 40.1148C18.6305 40.106 16.2659 37.7458 16.2615 34.6209C16.2571 33.2364 16.2132 31.8564 16.5955 30.4983C17.6591 26.7449 21.1357 24.0419 25.0297 24.0068C26.6515 23.9936 28.2821 23.9452 29.8907 24.0947C33.6485 24.4375 36.9008 27.4789 37.5645 31.1971C37.8502 32.7881 37.9161 34.4055 37.5733 35.9922C37.0547 38.3963 34.8791 40.0884 32.4134 40.1192C32.3871 40.1192 32.3563 40.1192 32.3299 40.1192C30.5543 40.1148 28.7787 40.1148 27.0031 40.1148Z" fill="#E2C86D"/>
<path d="M19.8555 15.0229C19.8643 11.0542 23.0771 7.86771 27.0503 7.8809C30.9927 7.89848 34.1747 11.1113 34.1615 15.0625C34.1483 19.0137 30.9487 22.2089 27.0063 22.2089C23.0507 22.2133 19.8423 18.9873 19.8555 15.0229Z" fill="#E2C86D"/>
<path d="M18.0419 13.2609C18.0375 16.2232 15.6422 18.6229 12.6843 18.6273C9.73522 18.6273 7.31353 16.2188 7.30474 13.2697C7.29156 10.3074 9.72204 7.88135 12.6975 7.88575C15.6554 7.89014 18.0463 10.2943 18.0419 13.2609Z" fill="#E2C86D"/>
<path d="M35.9688 13.2341C35.9776 10.2674 38.3729 7.87647 41.3396 7.88087C44.2931 7.88526 46.706 10.2982 46.7104 13.2473C46.7148 16.2096 44.2755 18.6356 41.3044 18.6225C38.3465 18.6137 35.96 16.2008 35.9688 13.2341Z" fill="#E2C86D"/>
</svg>
