<svg width="45" height="56" viewBox="0 0 45 56" fill="none" xmlns="http://www.w3.org/2000/svg">
<path d="M13.2421 14.4353C13.2421 13.4295 13.2249 12.4581 13.2479 11.4867C13.2594 10.843 13.7192 10.3257 14.3515 10.1762C14.955 10.0325 15.6275 10.3084 15.9091 10.8832C16.0413 11.1533 16.0988 11.481 16.1103 11.7913C16.1333 12.6592 16.1218 13.5272 16.1218 14.4296C20.2717 14.4296 24.4043 14.4296 28.583 14.4296C28.583 13.5444 28.56 12.665 28.5945 11.7856C28.6117 11.4407 28.6979 11.0671 28.8646 10.7682C29.1578 10.2452 29.8245 10.0325 30.3935 10.1935C31.0028 10.3601 31.4339 10.8659 31.4511 11.4925C31.4741 12.3029 31.4626 13.1133 31.4626 13.9238C31.4626 14.0847 31.4626 14.2456 31.4626 14.4411C32.3823 14.4411 33.2674 14.4985 34.1411 14.4296C37.3196 14.1824 39.9176 16.7747 39.6532 19.9589C39.6245 20.3038 39.6417 20.6487 39.6302 20.9935C39.613 21.4476 39.4175 21.6488 38.9692 21.666C38.8658 21.6718 38.7565 21.666 38.6531 21.666C27.784 21.666 16.915 21.666 6.04592 21.666C5.1895 21.666 5.06305 21.5453 5.07455 20.6717C5.08604 19.9129 5.02282 19.1313 5.16651 18.3955C5.66657 15.9067 8.00017 14.2399 10.5177 14.4296C11.3971 14.487 12.2823 14.4353 13.2421 14.4353Z" fill="#E2C86D"/>
<path d="M22.4083 24.2094C27.8055 24.2094 33.2027 24.2094 38.6056 24.2094C39.5885 24.2094 39.6689 24.2898 39.6689 25.2957C39.6689 30.1123 39.6747 34.9232 39.6632 39.7399C39.6632 40.4583 39.7092 41.1883 39.5712 41.8838C39.0712 44.3668 36.7433 46.0509 34.22 45.844C33.9959 45.8268 33.7717 45.8153 33.5475 45.8153C26.1099 45.8153 18.6723 45.8153 11.2347 45.8095C10.5162 45.8095 9.78047 45.867 9.09074 45.7233C6.55022 45.2118 4.86612 42.8896 5.09028 40.3146C5.10752 40.0905 5.11327 39.8663 5.11327 39.6422C5.11327 34.8255 5.11327 30.0146 5.11327 25.198C5.11327 24.3243 5.22823 24.2036 6.08465 24.2036C11.522 24.2094 16.9652 24.2094 22.4083 24.2094ZM20.5001 30.4285C20.4886 31.4803 21.3278 32.3482 22.3854 32.377C23.4372 32.4057 24.3511 31.5148 24.3511 30.4515C24.3511 29.4054 23.4832 28.5374 22.4313 28.5317C21.3737 28.5259 20.5058 29.3766 20.5001 30.4285ZM32.0186 30.44C32.0129 29.3824 31.1622 28.5317 30.0989 28.5317C29.047 28.5317 28.1791 29.3881 28.1676 30.44C28.1561 31.4975 29.0585 32.3942 30.1161 32.377C31.1795 32.3597 32.0244 31.4975 32.0186 30.44ZM32.0186 38.1477C32.0244 37.0901 31.1852 36.228 30.1276 36.2107C29.07 36.1877 28.1676 37.0844 28.1734 38.142C28.1791 39.1881 29.047 40.0502 30.0989 40.056C31.1507 40.056 32.0129 39.2053 32.0186 38.1477ZM20.5001 38.096C20.4828 39.1536 21.322 40.0273 22.3739 40.0502C23.4487 40.0732 24.3396 39.2111 24.3511 38.1477C24.3626 37.1074 23.5004 36.228 22.4486 36.2107C21.4025 36.1877 20.5173 37.0499 20.5001 38.096ZM16.6548 38.1477C16.6606 37.0844 15.8271 36.228 14.7638 36.2107C13.712 36.1935 12.8383 37.0384 12.8268 38.096C12.8096 39.1823 13.6602 40.0502 14.7351 40.0502C15.7984 40.0502 16.6491 39.2053 16.6548 38.1477ZM12.8268 30.4515C12.8268 31.5148 13.6717 32.3655 14.7293 32.377C15.7812 32.3827 16.6433 31.532 16.6548 30.4744C16.6663 29.3939 15.8041 28.5259 14.7293 28.5317C13.6717 28.5374 12.8268 29.3881 12.8268 30.4515Z" fill="#E2C86D"/>
</svg>
