<svg width="88" height="88" viewBox="0 0 88 88" fill="none" xmlns="http://www.w3.org/2000/svg">
<circle opacity="0.3" cx="44.0005" cy="44" r="43.5978" transform="rotate(0.530989 44.0005 44)" fill="#ECD996"/>
<circle cx="44.6397" cy="44.6405" r="29.4796" fill="#ECD996"/>
<path d="M66.728 51.6995C66.7102 51.7218 66.688 51.744 66.6791 51.7662C66.1414 53.837 64.8794 54.8146 62.7375 54.819C61.6799 54.819 60.6223 54.819 59.5159 54.819C59.3514 50.2287 57.3784 46.6515 53.5391 44.0519C53.8012 43.8031 54.0368 43.5498 54.3034 43.332C55.1877 42.621 56.2053 42.19 57.3384 42.1633C58.8493 42.1278 60.3691 42.0878 61.8755 42.1989C64.2484 42.3766 66.2081 44.2385 66.6436 46.5848C66.6658 46.7092 66.7013 46.8292 66.7324 46.9492C66.728 48.5312 66.728 50.1131 66.728 51.6995Z" fill="#090909"/>
<path d="M23.2784 46.9443C23.4962 46.2955 23.6295 45.5978 23.9494 45.0024C24.9048 43.2516 26.4157 42.2517 28.4153 42.1584C29.9484 42.0873 31.4993 42.1006 33.0279 42.2073C34.401 42.3006 35.5297 42.9938 36.454 44.0559C32.6369 46.6332 30.655 50.2015 30.4861 54.8141C30.0195 54.8141 29.5707 54.8185 29.1219 54.8141C28.2732 54.8052 27.4244 54.8496 26.5801 54.7741C24.9181 54.6275 23.7139 53.5165 23.3451 51.8901C23.3317 51.8235 23.2962 51.7613 23.2695 51.699C23.2784 50.1126 23.2784 48.5307 23.2784 46.9443Z" fill="#090909"/>
<path d="M45.0048 62.0531C43.2362 62.0531 41.472 62.0575 39.7034 62.0531C36.5395 62.0442 34.1488 59.6579 34.1444 56.4984C34.1399 55.0986 34.0955 53.7033 34.4821 52.3302C35.5575 48.5353 39.0724 45.8024 43.0096 45.7669C44.6493 45.7535 46.2979 45.7046 47.9243 45.8557C51.7237 46.2023 55.012 49.2774 55.683 53.0368C55.9719 54.6454 56.0385 56.2807 55.6919 57.8849C55.1676 60.3156 52.9679 62.0264 50.475 62.0575C50.4483 62.0575 50.4172 62.0575 50.3906 62.0575C48.5953 62.0531 46.8001 62.0531 45.0048 62.0531Z" fill="#090909"/>
<path d="M37.7735 36.6837C37.7824 32.671 41.0307 29.4494 45.0478 29.4627C49.0338 29.4805 52.2511 32.7288 52.2378 36.7237C52.2244 40.7186 48.9894 43.9492 45.0034 43.9492C41.0041 43.9536 37.7601 40.6919 37.7735 36.6837Z" fill="#090909"/>
<path d="M35.942 34.9021C35.9375 37.8971 33.5157 40.3234 30.5251 40.3278C27.5434 40.3278 25.0949 37.8927 25.086 34.911C25.0727 31.9159 27.53 29.463 30.5384 29.4674C33.529 29.4719 35.9464 31.9026 35.942 34.9021Z" fill="#090909"/>
<path d="M54.0664 34.8751C54.0753 31.8756 56.4971 29.4582 59.4966 29.4627C62.4828 29.4671 64.9224 31.9067 64.9269 34.8884C64.9313 37.8835 62.465 40.3364 59.4611 40.3231C56.4705 40.3142 54.0575 37.8746 54.0664 34.8751Z" fill="#090909"/>
</svg>
