<svg width="31" height="30" viewBox="0 0 31 30" fill="none" xmlns="http://www.w3.org/2000/svg">
<path d="M26.5421 8.82079C26.5421 7.88324 26.5421 6.99479 26.5421 6.08179C26.9053 6.08179 27.2489 6.08179 27.6269 6.08179C27.6269 6.97024 27.6269 7.87343 27.6269 8.82079C28.211 8.82079 28.7558 8.82079 29.3056 8.82079C29.4872 8.82079 29.6738 8.81097 29.8554 8.8257C30.1842 8.84533 30.3806 9.04659 30.4051 9.37546C30.41 9.46873 30.41 9.55708 30.41 9.65034C30.41 14.6179 30.41 19.5854 30.41 24.5529C30.41 25.2499 30.2677 25.3922 29.5559 25.3922C28.9375 25.3922 28.319 25.3922 27.6612 25.3922C27.6612 26.3102 27.6612 27.2133 27.6612 28.1312C27.2833 28.1312 26.9446 28.1312 26.5666 28.1312C26.5666 27.2428 26.5666 26.3396 26.5666 25.3922C25.9727 25.3922 25.4131 25.3922 24.8535 25.3922C24.6719 25.3922 24.4854 25.4021 24.3037 25.3873C24.0043 25.3579 23.8276 25.1763 23.7932 24.8768C23.7834 24.7738 23.7883 24.6707 23.7883 24.5676C23.7883 19.6001 23.7883 14.6326 23.7883 9.66507C23.7883 8.96805 23.9307 8.83061 24.6424 8.83061C25.2511 8.82079 25.8696 8.82079 26.5421 8.82079Z" fill="#ECD996"/>
<path d="M12.179 26.4916C12.179 27.4292 12.179 28.3225 12.179 29.2355C11.8158 29.2355 11.4722 29.2355 11.0942 29.2355C11.0942 28.3421 11.0942 27.439 11.0942 26.4916C10.4168 26.4916 9.77868 26.4916 9.14056 26.4916C8.46318 26.4916 8.31592 26.3443 8.31592 25.6621C8.31592 20.6847 8.31592 15.7025 8.31592 10.7252C8.31592 10.087 8.47299 9.92506 9.10129 9.92506C9.74432 9.92506 10.3873 9.92506 11.0647 9.92506C11.0647 9.00224 11.0647 8.10397 11.0647 7.18115C11.4427 7.18115 11.7814 7.18115 12.1594 7.18115C12.1594 8.07452 12.1594 8.97279 12.1594 9.92506C12.7435 9.92506 13.2883 9.92506 13.8381 9.92506C13.9755 9.92506 14.113 9.92506 14.2504 9.92506C14.7413 9.92997 14.9376 10.1214 14.9376 10.6172C14.9376 13.4347 14.9376 16.2523 14.9376 19.0698C14.9376 21.2885 14.9376 23.5072 14.9376 25.7259C14.9376 26.3149 14.7658 26.4916 14.1866 26.4916C13.5338 26.4916 12.8809 26.4916 12.179 26.4916Z" fill="#ECD996"/>
<path d="M18.8158 2.74391C18.8158 1.80146 18.8158 0.913001 18.8158 0C19.179 0 19.5226 0 19.9006 0C19.9006 0.898275 19.9006 1.79655 19.9006 2.74391C20.578 2.74391 21.2161 2.74391 21.8542 2.74391C22.5267 2.74391 22.674 2.89117 22.674 3.57837C22.674 8.54588 22.674 13.5134 22.674 18.4809C22.674 19.1632 22.5267 19.3105 21.8493 19.3105C21.221 19.3105 20.5878 19.3105 19.9202 19.3105C19.9202 20.2333 19.9202 21.1365 19.9202 22.0544C19.5423 22.0544 19.2036 22.0544 18.8256 22.0544C18.8256 21.1561 18.8256 20.2578 18.8256 19.3105C18.1482 19.3105 17.5101 19.3105 16.872 19.3105C16.2093 19.3105 16.0522 19.1583 16.0522 18.5103C16.0522 13.5183 16.0522 8.53115 16.0522 3.5391C16.0522 2.90589 16.2093 2.74391 16.8425 2.74391C17.4806 2.74391 18.1237 2.74391 18.8158 2.74391ZM21.545 18.1913C21.545 13.4005 21.545 8.63424 21.545 3.8778C20.0675 3.8778 18.6145 3.8778 17.1665 3.8778C17.1665 8.66369 17.1665 13.4201 17.1665 18.1913C18.6293 18.1913 20.0773 18.1913 21.545 18.1913Z" fill="#ECD996"/>
<path d="M4.44801 22.6237C4.44801 23.5661 4.44801 24.4595 4.44801 25.3676C4.08477 25.3676 3.74117 25.3676 3.36321 25.3676C3.36321 24.4693 3.36321 23.5661 3.36321 22.6237C2.68582 22.6237 2.0477 22.6237 1.40958 22.6237C0.74692 22.6237 0.589844 22.4715 0.589844 21.8236C0.589844 16.8315 0.589844 11.8444 0.589844 6.85234C0.589844 6.21913 0.746919 6.05714 1.38013 6.05714C2.02316 6.05714 2.66618 6.05714 3.34357 6.05714C3.34357 5.13432 3.34357 4.23114 3.34357 3.31323C3.72153 3.31323 4.06023 3.31323 4.43819 3.31323C4.43819 4.21151 4.43819 5.10978 4.43819 6.05714C5.11558 6.05714 5.7537 6.05714 6.39182 6.05714C7.05448 6.05714 7.21155 6.20931 7.21155 6.85724C7.21155 11.8493 7.21155 16.8364 7.21155 21.8285C7.21155 22.4617 7.04957 22.6237 6.42127 22.6237C5.77824 22.6286 5.13521 22.6237 4.44801 22.6237ZM6.08748 21.5045C6.08748 16.7137 6.08748 11.9475 6.08748 7.19103C4.60999 7.19103 3.15704 7.19103 1.71391 7.19103C1.71391 11.9769 1.71391 16.7334 1.71391 21.5045C3.17177 21.5045 4.6149 21.5045 6.08748 21.5045Z" fill="#ECD996"/>
</svg>
