<svg width="88" height="88" viewBox="0 0 88 88" fill="none" xmlns="http://www.w3.org/2000/svg">
<circle opacity="0.3" cx="44.0005" cy="44" r="43.5978" transform="rotate(0.530989 44.0005 44)" fill="#ECD996"/>
<circle cx="44.6397" cy="44.6405" r="29.4796" fill="#ECD996"/>
<path d="M24.668 58.0141C24.668 48.6715 24.668 39.3348 24.668 29.9921C24.9329 29.4682 25.3038 29.1385 25.9219 29.0326C28.2943 28.6146 30.6609 28.1554 33.0275 27.708C37.2013 26.925 41.3752 26.1362 45.5549 25.3591C46.385 25.206 47.062 25.7476 47.0797 26.5895C47.0973 27.3136 47.0855 28.0436 47.0855 28.7677C47.0855 29.268 47.0855 29.7684 47.0855 30.3042C47.2798 30.3042 47.4329 30.3042 47.5859 30.3042C52.7194 30.3042 57.8587 30.3042 62.9921 30.3042C64.0695 30.3042 64.5227 30.7574 64.5227 31.8465C64.5227 39.9529 64.5227 48.0592 64.5227 56.1597C64.5227 57.2488 64.0753 57.7021 62.998 57.7021C57.8469 57.7021 52.7017 57.7021 47.5506 57.7021C47.4034 57.7021 47.2504 57.7021 47.0855 57.7021C47.0855 58.9384 47.0914 60.1216 47.0855 61.299C47.0797 62.2645 46.4203 62.8061 45.4784 62.6354C39.0263 61.4286 32.5742 60.2158 26.1162 59.0208C25.4568 58.8972 24.9388 58.6499 24.668 58.0141ZM61.9972 55.1884C61.9972 47.7119 61.9972 40.259 61.9972 32.812C57.0169 32.812 52.0718 32.812 47.1032 32.812C47.1032 33.6362 47.1032 34.4486 47.1032 35.2845C48.3159 35.2845 49.511 35.2786 50.7001 35.2845C51.5008 35.2904 52.0541 35.8026 52.06 36.5267C52.06 37.2508 51.5067 37.7688 50.7119 37.7747C49.6464 37.7806 48.5867 37.7747 47.5212 37.7747C47.3858 37.7747 47.2445 37.7747 47.1091 37.7747C47.1091 38.6342 47.1091 39.4407 47.1091 40.2649C48.3041 40.2649 49.4698 40.2649 50.6354 40.2649C51.4949 40.2649 52.06 40.7712 52.0541 41.5188C52.0483 42.2547 51.4831 42.7492 50.653 42.7492C49.6052 42.7551 48.5514 42.7492 47.5035 42.7492C47.3681 42.7492 47.2327 42.7492 47.1032 42.7492C47.1032 43.6087 47.1032 44.4093 47.1032 45.2394C47.2622 45.2394 47.4034 45.2394 47.5447 45.2394C48.6103 45.2394 49.6699 45.2335 50.7355 45.2394C51.5067 45.2453 52.0541 45.7633 52.06 46.4698C52.0659 47.1939 51.5125 47.7178 50.7178 47.7237C49.876 47.7296 49.0341 47.7237 48.1864 47.7237C47.8273 47.7237 47.4682 47.7237 47.1032 47.7237C47.1032 48.5773 47.1032 49.3838 47.1032 50.2139C48.3218 50.2139 49.511 50.208 50.706 50.2139C51.5008 50.2198 52.06 50.7378 52.0541 51.4619C52.0483 52.186 51.4949 52.6982 50.6943 52.6982C49.6287 52.7041 48.5691 52.6982 47.5035 52.6982C47.3681 52.6982 47.2327 52.6982 47.0914 52.6982C47.0914 53.5518 47.0914 54.3524 47.0914 55.1707C52.0718 55.1884 57.0227 55.1884 61.9972 55.1884ZM37.8607 43.6676C37.9431 43.5616 37.9961 43.4851 38.049 43.4144C39.2794 41.8308 40.5157 40.2414 41.752 38.6578C42.0228 38.3163 42.1817 37.9454 42.0698 37.5039C41.9403 36.9917 41.6107 36.6621 41.0926 36.562C40.5569 36.456 40.133 36.6797 39.8093 37.1036C38.7025 38.5282 37.5958 39.947 36.4949 41.3717C36.4007 41.4894 36.3065 41.6071 36.1947 41.7425C36.0769 41.6189 35.9886 41.5247 35.9062 41.4305C34.9761 40.365 34.0518 39.2994 33.1099 38.2457C32.5977 37.6687 31.8383 37.6275 31.3085 38.1103C30.7904 38.5812 30.7551 39.3053 31.2437 39.8881C31.5852 40.2943 31.9443 40.6888 32.2916 41.0891C33.0628 41.9721 33.8399 42.8611 34.6287 43.7618C34.2991 44.1915 33.9812 44.5977 33.6633 45.0098C32.845 46.0636 32.0149 47.1114 31.2084 48.1711C30.6609 48.8952 30.8669 49.7724 31.6499 50.1197C32.2151 50.3728 32.7743 50.2021 33.2158 49.637C34.1578 48.4301 35.0938 47.2233 36.0298 46.0165C36.1122 45.9105 36.2005 45.8104 36.3006 45.6868C36.5126 45.9282 36.695 46.1342 36.8717 46.3344C37.8783 47.4823 38.8791 48.6421 39.8976 49.7841C40.3979 50.3434 41.1456 50.3846 41.6695 49.9254C42.1994 49.4603 42.2406 48.7304 41.7637 48.1476C41.5989 47.9474 41.4223 47.7531 41.2516 47.5589C40.133 46.2637 39.0086 44.9804 37.8607 43.6676Z" fill="black"/>
<path d="M60.2246 36.9946C59.7551 36.9946 59.2857 37.0056 58.8094 36.9946C57.9534 36.9781 57.3252 36.4721 57.3321 35.8231C57.339 35.1906 57.9603 34.6901 58.7956 34.6791C59.7689 34.6626 60.7423 34.6626 61.7088 34.6791C62.5441 34.6956 63.1585 35.2016 63.1654 35.8341C63.1654 36.4831 62.5372 36.9836 61.6812 37.0001C61.1979 37.0001 60.7078 36.9946 60.2246 36.9946Z" fill="black"/>
<path d="M60.2522 42.8284C59.7689 42.8284 59.2788 42.8394 58.7956 42.8284C57.9672 42.8064 57.3459 42.3113 57.3321 41.6787C57.3252 41.046 57.9396 40.5234 58.768 40.5124C59.7551 40.4959 60.7423 40.4959 61.7294 40.5124C62.5578 40.5289 63.1722 41.046 63.1653 41.6787C63.1584 42.3113 62.5371 42.8119 61.7087 42.8284C61.2255 42.8394 60.7423 42.8284 60.2522 42.8284Z" fill="black"/>
<path d="M60.2243 48.6617C59.7411 48.6617 59.251 48.6727 58.7678 48.6617C57.9395 48.6397 57.3252 48.129 57.3321 47.4975C57.339 46.8769 57.9395 46.3662 58.7402 46.3497C59.7411 46.3278 60.7489 46.3278 61.7498 46.3497C62.5781 46.3662 63.1856 46.8934 63.1649 47.5304C63.151 48.151 62.5367 48.6397 61.7291 48.6617C61.2252 48.6727 60.7282 48.6617 60.2243 48.6617Z" fill="black"/>
<path d="M60.2383 53.3284C59.7551 53.3284 59.265 53.3394 58.7817 53.3284C57.9533 53.3064 57.332 52.8058 57.332 52.1732C57.332 51.5405 57.9464 51.0289 58.7748 51.0124C59.762 50.9959 60.7492 50.9959 61.7363 51.0124C62.5647 51.0289 63.1722 51.5515 63.1653 52.1842C63.1515 52.8168 62.5302 53.3119 61.6949 53.3284C61.2117 53.3394 60.7215 53.3284 60.2383 53.3284Z" fill="black"/>
</svg>
