<svg width="31" height="30" viewBox="0 0 31 30" fill="none" xmlns="http://www.w3.org/2000/svg">
<g id="Group">
<path id="Vector" d="M0.619873 28.4195C0.619873 18.9489 0.619873 9.47057 0.619873 0C7.90493 0 15.19 0 22.475 0C22.475 0.713005 22.4673 1.43376 22.475 2.14677C22.475 2.32502 22.4208 2.42577 22.2735 2.52652C20.398 3.73553 19.0883 5.41729 18.2125 7.44006C18.1118 7.68031 17.98 7.73456 17.7398 7.73456C13.5237 7.72681 9.31544 7.72681 5.09941 7.72681C4.99091 7.72681 4.87466 7.72681 4.76615 7.72681C4.76615 8.33131 4.76615 8.88932 4.76615 9.47832C9.00544 9.47832 13.2292 9.47832 17.4453 9.47832C17.267 10.3773 17.0888 11.2453 16.9105 12.1366C12.8727 12.1366 8.82719 12.1366 4.77391 12.1366C4.77391 12.7256 4.77391 13.2914 4.77391 13.8804C8.78844 13.8804 12.7875 13.8804 16.895 13.8804C16.7787 14.0974 16.7245 14.2679 16.616 14.3841C15.9495 15.0739 15.2675 15.7481 14.5855 16.4224C14.4692 16.5386 14.3452 16.6316 14.26 16.7091C14.7095 17.1509 15.1047 17.5539 15.5232 17.9646C16.2827 17.1974 17.0655 16.4069 17.8638 15.6241C17.9645 15.5234 18.135 15.4536 18.2823 15.4381C19.2588 15.3141 20.243 15.2289 21.2195 15.1049C21.638 15.0506 22.041 14.9421 22.4595 14.8569C22.4595 17.5926 22.4595 20.2897 22.4595 23.0177C16.244 23.0177 10.0517 23.0177 3.8284 23.0177C3.8284 23.1649 3.8284 23.2734 3.8284 23.3897C3.8284 24.9707 3.8284 26.544 3.8284 28.125C3.8284 28.869 3.40215 29.4425 2.69689 29.6827C2.64264 29.6982 2.59614 29.7292 2.54189 29.7525C2.34814 29.7525 2.15439 29.7525 1.96063 29.7525C1.69713 29.613 1.37938 29.5355 1.18563 29.334C0.945377 29.0782 0.805874 28.7217 0.619873 28.4195ZM4.75841 5.05304C9.29994 5.05304 13.8182 5.05304 18.3365 5.05304C18.3365 4.47178 18.3365 3.91378 18.3365 3.35577C13.8027 3.35577 9.28444 3.35577 4.75841 3.35577C4.75841 3.92928 4.75841 4.47953 4.75841 5.05304ZM11.5397 16.5386C9.26119 16.5386 7.01367 16.5386 4.76615 16.5386C4.76615 17.1199 4.76615 17.6779 4.76615 18.2359C7.03692 18.2359 9.28444 18.2359 11.5397 18.2359C11.5397 17.6701 11.5397 17.1199 11.5397 16.5386Z" fill="#ECD996"/>
<path id="Vector_2" d="M5.15381 29.7525C5.42506 29.2797 5.56456 28.7682 5.56456 28.2334C5.57231 27.1949 5.56456 26.1642 5.56456 25.1257C5.56456 25.0172 5.56456 24.9164 5.56456 24.7847C12.4776 24.7847 19.3752 24.7847 26.3037 24.7847C26.3115 24.8854 26.3192 24.9862 26.3192 25.0869C26.3192 25.9782 26.2882 26.8694 26.327 27.7607C26.3735 28.7604 26.0015 29.4425 25.0327 29.7525C18.4064 29.7525 11.7801 29.7525 5.15381 29.7525Z" fill="#ECD996"/>
<path id="Vector_3" d="M30.3804 2.20099C30.3029 2.76674 30.2409 3.33249 30.1401 3.8905C29.8766 5.45601 29.4194 6.95177 28.6521 8.35454C27.4121 10.6331 25.4668 12.0358 23.0566 12.8186C22.0723 13.1441 21.0416 13.3456 20.0341 13.6013C20.0263 13.5781 20.0263 13.5471 20.0186 13.5238C21.9716 11.5708 23.9323 9.61004 25.8698 7.67253C25.4126 7.21528 25.0096 6.82002 24.5911 6.40152C22.6613 8.33128 20.7083 10.292 18.7553 12.2451C18.732 12.2373 18.7088 12.2218 18.6855 12.2141C18.763 11.7646 18.8328 11.3151 18.9335 10.8733C19.2823 9.26129 19.8403 7.73453 20.7703 6.36277C21.9018 4.68876 23.4828 3.60375 25.3428 2.89074C26.9626 2.26299 28.6521 1.96848 30.3804 1.84448C30.3804 1.96848 30.3804 2.08473 30.3804 2.20099Z" fill="#ECD996"/>
</g>
</svg>
