<svg width="88" height="88" viewBox="0 0 88 88" fill="none" xmlns="http://www.w3.org/2000/svg">
<circle opacity="0.3" cx="44.0005" cy="44" r="43.5978" transform="rotate(0.530989 44.0005 44)" fill="#ECD996"/>
<circle cx="44.6397" cy="44.6405" r="29.4796" fill="#ECD996"/>
<path d="M66.2272 38.9137C66.0079 39.4824 65.5754 39.7668 65.0126 39.9683C58.3354 42.3322 51.6583 44.708 44.9871 47.0957C44.4302 47.2971 43.9206 47.309 43.3578 47.1075C36.6332 44.7021 29.9028 42.3085 23.1664 39.9268C22.6391 39.7372 22.2836 39.4232 22.0703 38.9196C22.0703 38.7181 22.0703 38.5167 22.0703 38.3153C22.2836 37.7465 22.722 37.4621 23.2849 37.2666C30.0094 34.9086 36.7162 32.5387 43.423 30.1629C43.9266 29.9851 44.3828 29.9851 44.8864 30.1569C51.5931 32.5327 58.2999 34.9026 65.0126 37.2607C65.5754 37.4562 66.0079 37.7465 66.2272 38.3093C66.2272 38.5108 66.2272 38.7122 66.2272 38.9137Z" fill="#090909"/>
<path d="M31.1645 45.5024C32.8531 46.1008 34.4468 46.6637 36.0347 47.2325C38.2505 48.0204 40.4663 48.8084 42.6822 49.6023C43.6361 49.946 44.584 49.9697 45.5438 49.626C49.229 48.3108 52.9201 47.0014 56.6112 45.692C56.7593 45.6387 56.9074 45.5913 57.1029 45.5202C57.1148 45.692 57.1325 45.8283 57.1325 45.9646C57.1325 47.6176 57.1207 49.2706 57.1385 50.9235C57.1503 51.7826 56.8185 52.4521 56.1846 52.9972C55.1892 53.8444 54.0043 54.3184 52.7838 54.7035C49.1164 55.8529 45.3601 56.1373 41.5387 55.8411C39.1392 55.6515 36.7752 55.2486 34.5357 54.3421C33.6825 53.9985 32.8768 53.5008 32.1125 52.9794C31.4252 52.5054 31.1408 51.7767 31.1527 50.9176C31.1764 49.2824 31.1586 47.6413 31.1586 46.0001C31.1645 45.8638 31.1645 45.7276 31.1645 45.5024Z" fill="#090909"/>
<path d="M63.0917 43.613C63.0917 43.7632 63.0917 43.879 63.0917 43.9906C63.0917 46.479 63.0968 48.9673 63.0865 51.4557C63.0865 51.6702 63.1485 51.8075 63.3602 51.9491C64.5374 52.7256 64.5065 54.1457 63.3292 54.9223C63.2053 55.0038 63.102 55.1711 63.102 55.2955C63.0865 56.7199 63.0917 58.1486 63.0917 59.573C63.0917 60.0749 62.7612 60.4482 62.2397 60.5511C61.5014 60.7013 60.8456 60.2594 60.8404 59.5987C60.8353 58.1829 60.8353 56.7671 60.8404 55.3513C60.8404 55.1497 60.7836 55.0167 60.5771 54.8837C59.3998 54.1329 59.4153 52.6784 60.6029 51.9234C60.7836 51.8075 60.8456 51.696 60.8456 51.5115C60.8404 49.199 60.8456 46.8908 60.8353 44.5784C60.8353 44.3381 60.9179 44.2394 61.1915 44.1665C61.8163 44.0077 62.4359 43.8104 63.0917 43.613Z" fill="#090909"/>
</svg>
