<svg width="31" height="30" viewBox="0 0 31 30" fill="none" xmlns="http://www.w3.org/2000/svg">
<path d="M30.2398 2.24225C30.2398 5.37526 30.2398 8.50059 30.2398 11.6259C30.2168 11.695 30.1937 11.7718 30.1784 11.8486C29.9019 13.0235 28.896 13.8682 27.6981 13.8682C24.7647 13.8835 21.8237 13.8835 18.8903 13.8682C17.5158 13.8605 16.3793 12.724 16.3716 11.3495C16.3563 8.41612 16.3563 5.47508 16.3716 2.54173C16.3716 1.70473 16.7249 0.998262 17.416 0.529846C17.7692 0.291799 18.2069 0.168937 18.6062 0C21.7392 0 24.8645 0 27.9899 0C28.0436 0.0153579 28.0974 0.0383956 28.1511 0.0537535C29.0419 0.245727 29.6639 0.767895 30.0325 1.58954C30.1246 1.79687 30.1707 2.02724 30.2398 2.24225ZM23.3287 6.10476C22.4687 6.10476 21.601 6.10476 20.7409 6.10476C20.2034 6.10476 19.8195 6.46567 19.8118 6.95712C19.8041 7.45625 20.1957 7.83252 20.7486 7.83252C22.4457 7.83252 24.1427 7.83252 25.8398 7.83252C26.3926 7.83252 26.7843 7.47161 26.7843 6.9648C26.7843 6.45799 26.3926 6.10476 25.8321 6.10476C24.9951 6.10476 24.1657 6.10476 23.3287 6.10476Z" fill="#ECD996"/>
<path d="M2.99494 0C6.12795 0 9.25327 0 12.3786 0C12.4324 0.0153579 12.4861 0.0383956 12.5399 0.0537535C13.7531 0.307159 14.6132 1.32846 14.6209 2.57245C14.6285 5.49044 14.6362 8.40844 14.6209 11.3264C14.6132 12.7394 13.4767 13.8682 12.0714 13.8758C9.14577 13.8912 6.22009 13.8835 3.29442 13.8758C2.19633 13.8682 1.2211 13.1387 0.883228 12.102C0.829476 11.9484 0.798759 11.7872 0.752686 11.6336C0.752686 8.50059 0.752686 5.37526 0.752686 2.24993C0.775722 2.16546 0.798759 2.08867 0.821796 2.0042C1.00609 1.28238 1.41307 0.714142 2.06578 0.353232C2.34991 0.191974 2.6801 0.115184 2.99494 0ZM8.58521 7.83252C9.14577 7.83252 9.66794 7.83252 10.1824 7.83252C10.7891 7.83252 11.1807 7.47929 11.173 6.95712C11.1653 6.44263 10.7737 6.10476 10.1824 6.10476C9.66026 6.10476 9.13041 6.10476 8.63128 6.10476C8.60056 6.06636 8.58521 6.05868 8.58521 6.051C8.58521 5.5058 8.57753 4.9606 8.57753 4.40771C8.57753 4.07752 8.44699 3.80875 8.15519 3.63982C7.57159 3.28659 6.85744 3.69357 6.84976 4.39236C6.84209 4.95292 6.84976 5.52116 6.84976 6.10476C6.24313 6.10476 5.66721 6.09708 5.09129 6.10476C4.62287 6.11244 4.25428 6.50406 4.25428 6.9648C4.25428 7.42554 4.61519 7.8018 5.08361 7.83252C5.22951 7.8402 5.36773 7.83252 5.51363 7.83252C5.95133 7.83252 6.38903 7.83252 6.81905 7.83252C6.83441 7.88627 6.84208 7.90931 6.84208 7.92467C6.84208 8.43148 6.84208 8.93829 6.84208 9.45277C6.84208 10.0364 7.19532 10.428 7.7098 10.428C8.22429 10.428 8.56985 10.0364 8.56985 9.4451C8.5852 8.91525 8.58521 8.39308 8.58521 7.83252Z" fill="#ECD996"/>
<path d="M0.752686 27.2449C0.752686 24.1119 0.752686 20.9866 0.752686 17.8612C0.775722 17.7921 0.798758 17.7153 0.814116 17.6462C1.09056 16.4637 2.10418 15.6267 3.32513 15.619C6.24313 15.6113 9.16113 15.6036 12.0791 15.619C13.492 15.6267 14.6209 16.7631 14.6285 18.1684C14.6439 21.0941 14.6362 24.0197 14.6285 26.9454C14.6209 28.0281 13.9297 28.9727 12.9084 29.3336C12.7395 29.395 12.5629 29.4334 12.3863 29.4871C9.25327 29.4871 6.12794 29.4871 3.00261 29.4871C2.9335 29.4641 2.85672 29.4411 2.7876 29.4257C1.8431 29.18 1.20574 28.6041 0.883228 27.6826C0.821797 27.5367 0.79108 27.3908 0.752686 27.2449ZM6.51189 22.5223C6.08955 22.9447 5.69792 23.3286 5.31398 23.7126C5.09897 23.9276 4.99146 24.1887 5.04521 24.4958C5.10664 24.826 5.29094 25.0564 5.60578 25.1639C5.94365 25.2868 6.25081 25.2023 6.50421 24.9566C6.90352 24.5649 7.29514 24.158 7.70213 23.7433C7.80195 23.8354 7.87106 23.8969 7.94017 23.966C8.27037 24.2962 8.60056 24.634 8.93843 24.9566C9.19184 25.2023 9.499 25.2868 9.83687 25.1639C10.1671 25.0487 10.3514 24.803 10.4051 24.4651C10.4512 24.158 10.3283 23.9045 10.1133 23.6895C9.72937 23.3056 9.34542 22.9216 8.9154 22.4993C9.03058 22.4072 9.11505 22.3534 9.19184 22.2766C9.52204 21.9541 9.85223 21.6316 10.1671 21.3014C10.4128 21.048 10.4896 20.7331 10.3667 20.3953C10.2515 20.0804 10.0135 19.8961 9.69097 19.8424C9.36846 19.7886 9.11505 19.9115 8.89236 20.1419C8.50842 20.5258 8.13215 20.9098 7.72516 21.3167C7.3105 20.8944 6.92655 20.5028 6.54261 20.1188C6.3276 19.9038 6.06651 19.7886 5.75936 19.8424C5.42916 19.8961 5.19879 20.0881 5.08361 20.403C4.96074 20.7408 5.03753 21.048 5.28326 21.3014C5.67489 21.7007 6.08187 22.0923 6.51189 22.5223Z" fill="#ECD996"/>
<path d="M27.9899 29.4872C24.8569 29.4872 21.7315 29.4872 18.6062 29.4872C18.5371 29.4642 18.4603 29.4412 18.3912 29.4258C17.224 29.1494 16.3716 28.1511 16.3716 26.9762C16.3563 24.0198 16.3563 21.0634 16.3716 18.1071C16.3793 16.7632 17.5158 15.6268 18.8596 15.6191C21.816 15.596 24.7724 15.596 27.7288 15.6191C28.7424 15.6268 29.4949 16.1413 29.9633 17.0474C30.0939 17.3008 30.1553 17.5849 30.2475 17.8537C30.2475 20.9867 30.2475 24.112 30.2475 27.2373C30.2244 27.3064 30.2014 27.3832 30.186 27.4523C29.9557 28.3661 29.4028 28.9958 28.5197 29.326C28.3431 29.3951 28.1665 29.4335 27.9899 29.4872ZM23.2673 21.6547C24.1274 21.6547 24.9951 21.6547 25.8551 21.6547C26.3926 21.6547 26.7766 21.2938 26.7843 20.8024C26.7919 20.2956 26.4003 19.9346 25.8474 19.9346C24.1504 19.9346 22.4533 19.9346 20.7563 19.9346C20.2034 19.9346 19.8118 20.3032 19.8195 20.8024C19.8195 21.3015 20.2111 21.6547 20.7717 21.6624C21.601 21.6547 22.4303 21.6547 23.2673 21.6547ZM23.298 25.1103C24.135 25.1103 24.9644 25.1103 25.8014 25.1103C26.385 25.1103 26.7766 24.7647 26.7843 24.2502C26.7919 23.7357 26.3926 23.3825 25.8167 23.3825C24.1427 23.3825 22.461 23.3825 20.787 23.3825C20.2111 23.3825 19.8118 23.7434 19.8195 24.2502C19.8271 24.7647 20.2188 25.1026 20.8024 25.1026C21.6317 25.1103 22.461 25.1103 23.298 25.1103Z" fill="#ECD996"/>
</svg>
