<svg width="31" height="30" viewBox="0 0 31 30" fill="none" xmlns="http://www.w3.org/2000/svg">
<g id="Group 1160444760">
<g id="Group">
<path id="Vector" d="M17.7237 29.9999C17.7163 28.9945 17.7163 27.9891 17.709 26.9838C17.709 25.883 17.7163 24.7749 17.7017 23.6741C17.7017 23.4687 17.753 23.4026 17.9658 23.3586C21.0406 22.7422 22.978 20.9076 23.7852 17.8768C23.7926 17.8474 23.7999 17.8181 23.8072 17.7887C23.9247 17.209 23.9246 17.209 24.5191 17.209C26.3977 17.209 28.269 17.209 30.1476 17.209C30.2651 17.209 30.3825 17.2163 30.4999 17.2237C30.4999 17.3191 30.4999 17.4218 30.4999 17.5172C30.4779 17.6199 30.4559 17.7227 30.4412 17.8254C30.2064 19.7848 29.6119 21.6267 28.5992 23.3219C27.6085 24.9804 26.3317 26.3673 24.7612 27.4828C23.3009 28.5248 21.6938 29.2587 19.9399 29.6476C19.3014 29.7871 18.6557 29.8825 18.0172 29.9925C17.9145 29.9999 17.8191 29.9999 17.7237 29.9999Z" fill="#ECD996"/>
<path id="Vector_2" d="M15.6692 30C15.0968 29.9046 14.5097 29.8386 13.9447 29.7138C11.0607 29.0901 8.63166 27.6737 6.65028 25.4869C5.35138 24.0559 4.41939 22.4194 3.80297 20.5921C3.55346 19.851 3.92772 19.2932 4.71293 19.2859C6.35674 19.2786 7.99321 19.2859 9.63702 19.2786C10.0773 19.2786 10.4076 19.4473 10.6277 19.8363C11.068 20.6068 11.6257 21.282 12.3156 21.8397C13.2989 22.6396 14.4143 23.1459 15.6619 23.3441C15.8967 23.3808 15.9554 23.4688 15.9554 23.6963C15.9481 25.6777 15.9481 27.6591 15.9481 29.6404C15.9481 29.7578 15.9554 29.8753 15.9628 29.9927C15.8674 30 15.7646 30 15.6692 30Z" fill="#ECD996"/>
<path id="Vector_3" d="M30.4925 15.4626C30.287 15.4553 30.0816 15.4479 29.8761 15.4479C27.9828 15.4479 26.0895 15.4406 24.1961 15.4553C23.9687 15.4553 23.8806 15.3966 23.8439 15.1618C23.5283 13.2978 22.611 11.7934 21.114 10.6413C20.8498 10.4431 20.571 10.2597 20.2848 10.0909C19.9325 9.87808 19.7784 9.56986 19.7784 9.16625C19.7784 7.50776 19.7711 5.84928 19.7784 4.18345C19.7857 3.43493 20.3435 3.05334 21.0553 3.28817C24.3503 4.40361 26.8967 6.45103 28.6653 9.44511C29.6633 11.133 30.2504 12.9602 30.4338 14.9122C30.4412 15.0003 30.4705 15.081 30.4852 15.1691C30.4925 15.2718 30.4925 15.3672 30.4925 15.4626Z" fill="#ECD996"/>
<path id="Vector_4" d="M17.7093 8.60847C17.7093 11.0962 17.7093 13.5913 17.7093 16.079C17.7093 16.9009 17.3938 17.2091 16.5719 17.2091C11.5818 17.2091 6.59162 17.2091 1.60883 17.2091C0.808936 17.2091 0.486044 16.8862 0.500721 16.0937C0.610798 9.01208 5.212 2.8478 11.9634 0.734331C13.4604 0.264671 15.0015 0.0298411 16.5719 0.000487391C17.3938 -0.0141895 17.7167 0.301364 17.7167 1.11593C17.7093 3.611 17.7093 6.10606 17.7093 8.60847Z" fill="#ECD996"/>
</g>
</g>
</svg>
