<svg width="29" height="35" viewBox="0 0 29 35" fill="none" xmlns="http://www.w3.org/2000/svg">
<g id="Group 1160444763">
<g id="Group">
<path id="Vector" d="M18.9085 0.0182723C18.9085 0.193339 18.9085 0.336576 18.9085 0.485117C18.9085 2.52225 18.9085 4.55939 18.9085 6.59652C18.9138 8.42676 20.0756 9.59387 21.9058 9.59917C23.943 9.60448 25.9801 9.59917 28.0119 9.59917C28.1605 9.59917 28.309 9.59917 28.5 9.59917C28.5 9.76893 28.5 9.90687 28.5 10.0395C28.5 17.1482 28.5 24.257 28.5 31.3657C28.5 32.8989 27.6512 34.0236 26.2613 34.3207C26.0225 34.3737 25.7626 34.379 25.5186 34.379C18.1711 34.379 10.8289 34.379 3.48143 34.379C1.67772 34.379 0.5 33.2013 0.5 31.3976C0.5 21.9281 0.5 12.4586 0.5 2.98909C0.5 1.18008 1.67241 0.0023578 3.47082 0.0023578C8.47878 -0.00294724 13.4867 0.0023578 18.5 0.0023578C18.622 -0.00294724 18.744 0.00766219 18.9085 0.0182723ZM14.5053 21.5939C11.9483 21.5939 9.38594 21.5939 6.82891 21.5939C6.69098 21.5939 6.55305 21.5886 6.41512 21.5992C5.67772 21.6522 5.17905 22.3313 5.3435 23.0528C5.48674 23.6681 5.96419 23.9917 6.72812 23.9917C11.9111 23.9917 17.0889 23.9917 22.2719 23.9917C22.4576 23.9917 22.6485 23.9811 22.8289 23.9334C23.5451 23.7424 23.9111 22.9201 23.5716 22.257C23.3223 21.7742 22.9085 21.5886 22.3727 21.5886C19.7467 21.5992 17.126 21.5939 14.5053 21.5939ZM14.4629 29.5779C17.0358 29.5779 19.6088 29.5779 22.1764 29.5779C22.3143 29.5779 22.4523 29.5833 22.5902 29.5726C23.1048 29.5355 23.4549 29.2543 23.6247 28.7822C23.7997 28.3047 23.6724 27.8697 23.3117 27.5143C23.0252 27.2278 22.6591 27.1801 22.2719 27.1801C17.0889 27.1801 11.9111 27.1801 6.72812 27.1854C6.55305 27.1854 6.37798 27.196 6.20822 27.2331C5.75729 27.3445 5.47082 27.6363 5.34881 28.0766C5.22679 28.5276 5.34881 28.9148 5.67241 29.2437C5.94828 29.5196 6.2931 29.5833 6.66976 29.5833C9.26923 29.5779 11.8634 29.5779 14.4629 29.5779ZM7.42308 17.578C7.72546 17.5939 8.01724 17.3764 8.2931 17.1005C10.3727 15.0156 12.4629 12.9307 14.5424 10.8459C15.0836 10.3047 15.6247 9.77424 16.1552 9.22251C16.5265 8.83525 16.5955 8.28352 16.3621 7.8379C16.1286 7.39228 15.6565 7.12172 15.1472 7.22782C14.8714 7.28618 14.5796 7.44002 14.378 7.63631C11.7573 10.2305 9.15782 12.8405 6.55305 15.4453C6.47347 15.5249 6.3939 15.6045 6.33024 15.7C6.06499 16.0978 6.02785 16.5169 6.25066 16.9413C6.47347 17.3604 6.83422 17.5726 7.42308 17.578ZM12.9138 16.0077C12.9191 17.1058 13.7997 17.9811 14.8926 17.9917C15.9907 18.0024 16.8979 17.0952 16.9032 15.997C16.9032 14.8936 16.0013 13.9917 14.8979 13.997C13.7891 13.9917 12.9032 14.8883 12.9138 16.0077ZM5.71485 8.77689C5.70955 9.89095 6.59019 10.7875 7.69894 10.7875C8.79708 10.7928 9.70424 9.88565 9.69894 8.7822C9.69894 7.69997 8.813 6.80342 7.72546 6.7875C6.62732 6.77689 5.72016 7.66814 5.71485 8.77689Z" fill="#ECD996"/>
<path id="Vector_2" d="M28.325 7.17495C28.0809 7.18556 27.9589 7.19617 27.8369 7.19617C25.89 7.19617 23.9377 7.19617 21.9907 7.19617C21.386 7.19617 21.3064 7.11129 21.3064 6.50121C21.3064 4.55426 21.3064 2.602 21.3064 0.655055C21.3064 0.533039 21.3064 0.405719 21.3064 0.166992C21.6247 0.384499 21.9006 0.517125 22.1128 0.724021C23.9961 2.58609 25.8687 4.45877 27.7308 6.34206C27.943 6.55956 28.0915 6.84073 28.325 7.17495Z" fill="#ECD996"/>
</g>
</g>
</svg>
