<svg width="25" height="32" viewBox="0 0 25 32" fill="none" xmlns="http://www.w3.org/2000/svg">
<path d="M16.3347 0.00438804C17.6231 1.6147 18.9072 3.22501 20.1955 4.83093C20.8484 5.64267 21.5012 6.45441 22.1757 7.29686C22.2535 7.39339 22.1886 7.54258 22.0633 7.54696C22.0633 7.54696 22.0633 7.54696 22.0589 7.54696C21.1294 7.54696 20.1999 7.54696 19.2703 7.54696C18.7342 7.54696 18.5613 7.72247 18.5613 8.25778C18.5613 10.7808 18.5613 13.3081 18.5613 15.8311C18.5613 15.9452 18.5613 16.0548 18.5613 16.1953C16.9746 16.1031 15.5003 16.4278 14.0692 17.2308C14.0692 17.0553 14.0692 16.9368 14.0692 16.8183C14.0692 14.0014 14.0692 11.18 14.0692 8.36309C14.0692 7.69176 13.9309 7.54696 13.2737 7.54696C12.409 7.54696 11.54 7.54696 10.6278 7.54696C10.4764 7.54696 10.3943 7.37145 10.4894 7.25298C10.4894 7.25298 10.4894 7.25298 10.4894 7.2486C12.3615 4.91869 14.2335 2.58878 16.1012 0.254491C16.1618 0.175511 16.2093 0.0877554 16.2612 0C16.2958 0.00877554 16.3088 0.00877581 16.3347 0.00438804Z" fill="#ECD996"/>
<path d="M1.58761 32.0001C1.50454 31.9597 1.42585 31.9193 1.34279 31.8833C0.643301 31.5915 0.227981 30.8462 0.350391 30.1009C0.477172 29.3421 1.08485 28.7764 1.83242 28.727C1.93735 28.718 2.04227 28.7225 2.14719 28.7225C5.25553 28.7225 8.36387 28.7225 11.4722 28.718C11.6995 28.718 11.8526 28.7719 12.0012 28.965C12.8537 30.0515 13.645 30.6307 15.3718 31.4703C15.1882 31.7935 14.8429 31.8519 14.5587 32.0001C10.235 32.0001 5.9113 32.0001 1.58761 32.0001Z" fill="#ECD996"/>
<path d="M12.9103 11.7607C12.9103 12.8706 12.9103 13.931 12.9103 15.0183C12.8113 15.0273 12.721 15.0363 12.6349 15.0408C9.09845 15.0408 5.56194 15.0453 2.02974 15.0408C0.988583 15.0408 0.29591 14.3264 0.330329 13.3154C0.356142 12.5201 0.971373 11.8416 1.72858 11.7742C1.84044 11.7652 1.9523 11.7607 2.06846 11.7607C5.57485 11.7607 9.07694 11.7607 12.5833 11.7607C12.678 11.7607 12.7769 11.7607 12.9103 11.7607Z" fill="#ECD996"/>
<path d="M12.9082 16.1468C12.9082 16.6912 12.9167 17.2108 12.8996 17.7304C12.8996 17.8129 12.818 17.8995 12.7536 17.9696C12.4186 18.3119 12.0794 18.6583 11.7273 18.9882C11.6415 19.0665 11.5083 19.1366 11.3924 19.1366C8.25357 19.1449 5.11473 19.149 1.97589 19.1408C1.09994 19.1408 0.425797 18.584 0.339919 17.8294C0.249747 17.0541 0.730664 16.3695 1.50786 16.1798C1.63668 16.1468 1.76979 16.1386 1.9029 16.1386C5.49259 16.1344 9.08229 16.1386 12.672 16.1386C12.7407 16.1386 12.8008 16.1427 12.9082 16.1468Z" fill="#ECD996"/>
<path d="M10.0977 24.6176C10.2148 25.1653 10.2886 25.6719 10.4361 26.1579C10.5836 26.6438 10.8005 27.1133 10.9958 27.6117C10.9307 27.6158 10.8656 27.624 10.7962 27.624C7.87205 27.624 4.95223 27.624 2.02808 27.624C1.53783 27.624 1.10398 27.4922 0.769919 27.1463C0.323053 26.6809 0.210253 26.1414 0.457547 25.5607C0.709181 24.9677 1.20377 24.6423 1.87624 24.6258C2.69621 24.6052 3.51185 24.6217 4.33183 24.6217C6.14532 24.6217 7.95882 24.6217 9.77231 24.6217C9.88511 24.6176 9.99791 24.6176 10.0977 24.6176Z" fill="#ECD996"/>
<path d="M10.9958 20.2456C10.7646 21.0138 10.529 21.7641 10.3196 22.5233C10.2498 22.7659 10.2323 23.0309 10.2149 23.287C10.2018 23.4667 10.132 23.5206 9.96185 23.5206C7.27455 23.5161 4.58724 23.5296 1.89994 23.5116C0.97945 23.5071 0.311986 22.7569 0.329436 21.827C0.346886 20.9375 1.0318 20.2456 1.93048 20.2456C4.91879 20.2411 7.91148 20.2411 10.8998 20.2411C10.9434 20.2366 10.9827 20.2411 10.9958 20.2456Z" fill="#ECD996"/>
<path d="M17.8333 17.2308C14.0781 17.2177 11.0044 20.2947 10.9957 24.0791C10.9914 27.8201 14.0433 30.8841 17.7943 30.9058C21.5842 30.9275 24.6623 27.8852 24.6709 24.1095C24.6753 20.3034 21.6407 17.2438 17.8333 17.2308ZM20.3643 21.128H18.5323C18.8188 21.3884 19.0098 21.7529 19.0793 22.2303H20.3643V22.9247H19.0793C18.9317 24.0618 18.033 24.7562 16.7567 24.8256C17.5772 25.6806 18.5236 26.8046 19.4309 27.933H17.9158C17.1517 27.0129 16.2878 25.9757 15.3067 24.9298V23.975H15.9796C17.0606 23.975 17.6293 23.554 17.7465 22.9291H15.311V22.2347H17.7031C17.5338 21.7226 17.0215 21.4274 16.1446 21.4274H15.3154V20.4379H20.373V21.128H20.3643Z" fill="#ECD996"/>
</svg>
