<svg width="29" height="30" viewBox="0 0 29 30" fill="none" xmlns="http://www.w3.org/2000/svg">
<path d="M19.8863 29.0256C19.3649 28.9122 18.8283 28.8366 18.3145 28.6855C14.9366 27.7107 12.6394 24.3782 12.8963 20.8643C13.1683 17.2144 15.8434 14.3277 19.4631 13.7912C23.4757 13.1942 27.3675 16.0053 28.0551 20.0104C28.7957 24.3253 25.9392 28.285 21.6017 28.95C21.4656 28.9727 21.3296 28.9953 21.1936 29.0256C20.7553 29.0256 20.3246 29.0256 19.8863 29.0256ZM18.7528 24.0683C18.9492 23.9625 19.1759 23.8945 19.3271 23.7434C20.5286 22.557 21.7226 21.363 22.909 20.1691C23.113 19.965 23.2112 19.7081 23.1508 19.4209C23.0828 19.0884 22.8939 18.8617 22.5689 18.7559C22.2289 18.6501 21.9342 18.7408 21.6923 18.9902C20.9896 19.6854 20.2943 20.3882 19.5916 21.091C19.1079 21.5746 18.6167 22.0582 18.1331 22.5494C17.8611 22.8215 17.7855 23.1464 17.9442 23.5091C18.0651 23.819 18.39 24.023 18.7528 24.0683ZM23.1206 23.1313C23.1281 22.6552 22.7578 22.2849 22.2893 22.2774C21.8208 22.2698 21.4354 22.6477 21.4279 23.1086C21.4203 23.562 21.8057 23.9625 22.2666 23.9701C22.7276 23.9777 23.113 23.5998 23.1206 23.1313ZM19.5084 19.5041C19.5009 19.0355 19.123 18.6577 18.6545 18.6653C18.186 18.6728 17.8233 19.0582 17.8233 19.5267C17.8308 19.9953 18.2087 20.3655 18.6772 20.358C19.1533 20.3504 19.516 19.9726 19.5084 19.5041Z" fill="#ECD996"/>
<path d="M16.4332 0.00755721C17.0756 0.400508 17.1662 0.657436 16.9244 1.39044C16.403 2.95469 15.8816 4.51893 15.3602 6.08318C15.0881 6.89175 14.3929 7.05044 13.7884 6.4459C13.471 6.12852 13.1536 5.80358 12.7455 5.3804C12.67 5.50887 12.6322 5.62977 12.5566 5.70534C9.20143 9.06809 5.83868 12.4308 2.47593 15.7785C2.31724 15.9372 2.09809 16.0732 1.8865 16.1337C1.56912 16.2319 1.20639 16.043 1.03259 15.7634C0.843669 15.4611 0.858783 15.0908 1.07037 14.8037C1.13838 14.713 1.22151 14.6374 1.30463 14.5543C4.65227 11.2067 7.99991 7.85902 11.3475 4.51893C11.4231 4.44337 11.5289 4.38291 11.6498 4.29223C11.2795 3.92195 10.9546 3.60457 10.6372 3.28718C10.0024 2.65242 10.1687 1.97231 11.015 1.69271C12.6095 1.16374 14.1964 0.627211 15.7909 0.0982391C15.8589 0.0755688 15.9194 0.0377837 15.9874 0C16.131 0.00755674 16.2821 0.00755721 16.4332 0.00755721Z" fill="#ECD996"/>
<path d="M24.6924 12.9975C23.6042 12.4761 22.4934 12.1663 21.3296 12.0605C20.1735 11.9622 19.0324 12.0907 17.8838 12.4005C17.8762 12.2796 17.8687 12.1889 17.8687 12.0982C17.8687 9.33247 17.8687 6.5667 17.8687 3.80094C17.8687 3.11327 18.1936 2.78833 18.8661 2.78833C20.4984 2.78833 22.1307 2.78833 23.7705 2.78833C24.3448 2.78833 24.7 3.13594 24.7 3.69514C24.7 6.74806 24.7 9.79344 24.7 12.8464C24.7 12.8841 24.6924 12.9144 24.6924 12.9975Z" fill="#ECD996"/>
<path d="M12.1556 25.5645C11.4453 25.5645 10.7652 25.5871 10.0926 25.5569C9.69965 25.5418 9.39738 25.1866 9.35204 24.7786C9.34448 24.6954 9.34448 24.6123 9.34448 24.5216C9.34448 20.4032 9.34448 16.2848 9.34448 12.1664C9.34448 11.4258 9.65431 11.116 10.3949 11.116C11.9893 11.116 13.5838 11.116 15.1858 11.116C15.8508 11.116 16.1833 11.4485 16.1833 12.1059C16.1833 12.4157 16.2816 12.7784 16.1531 13.0278C16.0246 13.2696 15.6695 13.383 15.4125 13.5492C11.5511 16.043 10.0926 21.1135 12.0347 25.2849C12.0725 25.368 12.1103 25.4511 12.1556 25.5645Z" fill="#ECD996"/>
<path d="M4.24377 25.5646C3.42009 25.5646 2.5964 25.5646 1.78028 25.5646C1.16818 25.5646 0.835682 25.2321 0.828125 24.62C0.828125 23.2673 0.828125 21.9222 0.828125 20.5696C0.828125 19.9424 1.16818 19.6174 1.79539 19.6174C3.42765 19.6174 5.06746 19.6174 6.69972 19.6174C7.34204 19.6174 7.68209 19.9499 7.68965 20.5923C7.68965 21.9222 7.68965 23.2522 7.68965 24.5898C7.68965 25.2321 7.3496 25.5721 6.71483 25.5721C5.88359 25.5721 5.06746 25.5646 4.24377 25.5646Z" fill="#ECD996"/>
</svg>
