<svg width="33" height="32" viewBox="0 0 33 32" fill="none" xmlns="http://www.w3.org/2000/svg">
<g id="Group 1160444748">
<g id="Group 1160444747">
<g id="Group 1160444746">
<g id="Group">
<path id="Vector" d="M22.2625 25.3224C22.2625 25.0826 22.2625 24.864 22.2625 24.6454C22.2625 17.213 22.2625 9.77356 22.2625 2.34114C22.2625 0.712215 22.6831 0 23.6452 0C25.0488 0 26.4524 0 27.856 0C28.714 0 29.1763 0.761577 29.1763 2.20011C29.1763 9.71715 29.1763 17.2342 29.1763 24.7512C29.1763 24.9275 29.1763 25.1109 29.1763 25.3224C26.8731 25.3224 24.599 25.3224 22.2625 25.3224Z" fill="#ECD996"/>
<path id="Vector_2" d="M2.29467 31.1684C1.23926 31.1684 0.383667 30.3102 0.383667 29.2548V29.2548C0.383667 28.1994 1.23925 27.3464 2.29466 27.3464C11.7687 27.3464 21.2313 27.3464 30.7054 27.3464C31.7608 27.3464 32.6164 28.1967 32.6164 29.2521V29.2521C32.6164 30.3076 31.7608 31.1684 30.7054 31.1684C21.2443 31.1684 11.7817 31.1684 2.29467 31.1684Z" fill="#ECD996"/>
<path id="Vector_3" d="M13.045 25.3156C13.045 25.0899 13.045 24.9136 13.045 24.7303C13.045 19.8365 13.045 14.9356 13.045 10.0417C13.045 8.54679 13.4907 7.80637 14.3778 7.79932C15.8064 7.79932 17.235 7.79932 18.6636 7.79932C19.4966 7.79932 19.9589 8.58205 19.9631 9.97827C19.9631 14.9144 19.9631 19.8506 19.9631 24.7867C19.9631 24.9489 19.9631 25.1111 19.9631 25.3156C17.6557 25.3156 15.3733 25.3156 13.045 25.3156Z" fill="#ECD996"/>
<path id="Vector_4" d="M3.82806 25.3151C3.82806 22.6566 3.81556 20.0334 3.83639 17.4173C3.84472 16.4159 4.34035 15.6191 4.94427 15.6121C6.50197 15.5909 8.06383 15.5909 9.6257 15.6121C10.2213 15.6191 10.7253 16.4159 10.7336 17.4173C10.7544 20.0334 10.7419 22.6566 10.7419 25.3151C8.43868 25.3151 6.15211 25.3151 3.82806 25.3151Z" fill="#ECD996"/>
</g>
</g>
</g>
</g>
</svg>
