<svg width="39" height="43" viewBox="0 0 39 43" fill="none" xmlns="http://www.w3.org/2000/svg">
<ellipse cx="14.1324" cy="21.3809" rx="5.62653" ry="5.62653" fill="#D2C69A"/>
<path d="M38.1366 11.0456C34.6181 8.87754 32.2025 14.6316 29.0666 13.7539C28.0388 13.4688 29.0816 11.8333 27.3936 11.9084C22.99 12.1034 23.5901 14.4065 20.8819 13.9414C18.0836 13.4613 18.9163 12.0734 16.2231 9.56773C15.2403 9.23764 13.0798 8.58496 14.04 7.2271C15.1203 7.01704 14.8727 5.90674 14.5051 5.19404C14.3551 4.04623 16.6432 3.83617 16.5907 2.67336C16.5232 1.02291 13.83 2.35827 13.0422 2.18572C11.2943 1.80312 10.7916 -0.522511 8.71357 0.10766C6.06535 0.940386 5.61523 0.865366 6.95059 2.27575C7.46073 2.80839 7.65578 3.5586 7.52825 4.27879C6.92058 7.6022 10.4615 4.94648 7.74581 9.52272C7.48323 9.96534 7.11563 10.3254 6.73303 10.663C5.44268 11.7808 5.1351 14.0089 2.99701 13.6263C0.491333 14.234 4.21234 17.0773 3.07954 18.7427C2.5844 19.5079 1.39908 18.0225 0.483831 19.2529C-0.378904 20.4157 1.39908 20.8208 2.30683 21.2034C2.76445 21.3909 2.85448 22.0286 2.47187 22.3362C2.47187 22.3362 2.46437 22.3437 2.45687 22.3512C2.11177 22.6213 2.11177 23.1614 2.44186 23.4465C4.64746 25.352 4.91003 21.736 6.49297 22.5463C6.81555 22.9514 6.38043 23.4915 6.09536 23.9266C5.41267 24.9694 5.66024 26.3648 6.05785 27.5426C6.77054 29.103 6.92058 30.671 6.71803 32.2989C6.86057 32.8616 7.46073 33.1992 7.7158 33.7168C9.2012 39.2083 10.9417 45.2849 14.3326 40.0035C15.2478 38.5706 15.7655 36.9127 15.8705 35.2172C16.2156 29.4556 21.0469 32.9516 21.8797 27.6702C22.0747 26.4248 22.7274 25.5996 23.4101 25.2395C24.1003 24.8794 24.7529 24.4518 25.2406 23.8441C26.2833 22.5538 26.5234 23.349 28.2714 22.6663C29.1641 21.5635 27.1536 20.6632 27.5737 19.643C28.0538 18.4727 27.0711 17.895 27.5437 16.9122C28.0238 15.907 29.2767 16.9122 30.0044 17.1298C30.462 17.2423 31.1147 17.1073 31.6023 17.0773C32.6901 17.0098 32.6076 18.0525 32.1875 18.4276C31.7898 18.7802 30.702 19.2304 30.4845 19.793C31.3472 19.748 31.5648 20.0256 32.0899 20.1456C32.435 20.2281 32.7501 20.4307 32.8851 20.7608C33.2002 21.511 34.1905 22.1562 35.1733 22.1111C35.3683 20.9183 34.2355 18.8553 35.5859 18.2626C36.5536 17.4449 35.4883 15.7494 36.0585 14.6241C36.7712 13.4838 40.0946 12.6961 38.1366 11.0231V11.0456ZM18.8788 23.8966C18.8788 23.8966 18.8563 23.9266 18.8413 23.9416C17.9261 25.4871 16.2456 26.5223 14.3251 26.5223C12.4046 26.5223 10.7241 25.4871 9.80887 23.9416C9.80136 23.9266 9.78636 23.9116 9.77136 23.8966C9.77136 23.8891 9.77136 23.8816 9.76385 23.8666C9.32123 23.1014 9.06616 22.2162 9.06616 21.2709C9.06616 20.3257 9.32123 19.4404 9.76385 18.6752C9.76385 18.6677 9.76385 18.6602 9.77136 18.6452C9.77136 18.6377 9.78636 18.6302 9.79386 18.6152C10.7091 17.0623 12.3896 16.0195 14.3176 16.0195C16.2456 16.0195 17.9261 17.0698 18.8413 18.6152C18.8413 18.6227 18.8563 18.6302 18.8638 18.6452C18.8638 18.6527 18.8638 18.6602 18.8713 18.6752C19.3139 19.4404 19.569 20.3257 19.569 21.2709C19.569 22.2162 19.3139 23.1014 18.8713 23.8666C18.8713 23.8741 18.8713 23.8816 18.8638 23.8966H18.8788Z" fill="#D2C69A"/>
</svg>
