<svg width="33" height="36" viewBox="0 0 33 36" fill="none" xmlns="http://www.w3.org/2000/svg">
<ellipse cx="11.903" cy="18.3122" rx="4.819" ry="4.819" fill="#ECD996"/>
<path d="M32.4618 9.46035C29.4483 7.60343 27.3794 12.5317 24.6936 11.7799C23.8133 11.5357 24.7064 10.135 23.2607 10.1993C19.489 10.3663 20.0031 12.3389 17.6835 11.9405C15.2869 11.5293 16.0001 10.3406 13.6934 8.19456C12.8517 7.91184 11.0012 7.35284 11.8236 6.18985C12.7489 6.00994 12.5368 5.05899 12.222 4.44859C12.0935 3.46551 14.0532 3.2856 14.0082 2.28967C13.9504 0.8761 11.6437 2.01981 10.9691 1.87203C9.47195 1.54433 9.04145 -0.44752 7.26163 0.0922085C4.99349 0.805421 4.60797 0.741167 5.75168 1.94913C6.1886 2.40533 6.35566 3.04786 6.24643 3.6647C5.72598 6.51112 8.75874 4.23655 6.43277 8.15601C6.20788 8.5351 5.89304 8.84352 5.56534 9.13266C4.46019 10.09 4.19675 11.9984 2.36553 11.6707C0.219465 12.1911 3.40643 14.6263 2.43621 16.0527C2.01213 16.7081 0.99693 15.4359 0.213039 16.4897C-0.525875 17.4856 0.99693 17.8326 1.7744 18.1603C2.16634 18.3209 2.24345 18.867 1.91575 19.1305C1.91575 19.1305 1.90933 19.1369 1.9029 19.1433C1.60734 19.3746 1.60734 19.8373 1.89005 20.0814C3.7791 21.7135 4.00399 18.6165 5.35973 19.3104C5.63602 19.6574 5.26335 20.12 5.01919 20.4927C4.43449 21.3858 4.64652 22.5809 4.98706 23.5897C5.59747 24.9261 5.72598 26.269 5.55249 27.6633C5.67458 28.1452 6.1886 28.4344 6.40706 28.8777C7.67928 33.5811 9.16996 38.7856 12.0742 34.2622C12.8581 33.0349 13.3015 31.6149 13.3914 30.1628C13.687 25.2281 17.8249 28.2223 18.5381 23.6989C18.7052 22.6323 19.2642 21.9255 19.8489 21.6171C20.44 21.3087 20.999 20.9424 21.4167 20.422C22.3098 19.3168 22.5154 19.9979 24.0125 19.4132C24.7771 18.4687 23.0551 17.6976 23.4149 16.8238C23.8262 15.8214 22.9844 15.3267 23.3892 14.485C23.8005 13.624 24.8735 14.485 25.4967 14.6713C25.8887 14.7677 26.4477 14.652 26.8653 14.6263C27.797 14.5685 27.7263 15.4616 27.3665 15.7829C27.026 16.0849 26.0943 16.4704 25.908 16.9523C26.6469 16.9137 26.8332 17.1515 27.283 17.2543C27.5785 17.325 27.8484 17.4984 27.9641 17.7812C28.2339 18.4237 29.0821 18.9763 29.9238 18.9377C30.0909 17.9161 29.1206 16.1491 30.2772 15.6415C31.1061 14.9412 30.1937 13.489 30.682 12.5252C31.2924 11.5486 34.1388 10.8739 32.4618 9.44107V9.46035ZM15.968 20.467C15.968 20.467 15.9487 20.4927 15.9358 20.5055C15.1519 21.8291 13.7127 22.7158 12.0678 22.7158C10.4229 22.7158 8.98362 21.8291 8.19973 20.5055C8.19331 20.4927 8.18046 20.4798 8.16761 20.467C8.16761 20.4605 8.16761 20.4541 8.16118 20.4413C7.78209 19.7859 7.56362 19.0277 7.56362 18.2181C7.56362 17.4085 7.78209 16.6503 8.16118 15.9949C8.16118 15.9885 8.16118 15.9821 8.16761 15.9692C8.16761 15.9628 8.18046 15.9564 8.18688 15.9435C8.97077 14.6135 10.41 13.7203 12.0614 13.7203C13.7127 13.7203 15.1519 14.6199 15.9358 15.9435C15.9358 15.9499 15.9487 15.9564 15.9551 15.9692C15.9551 15.9756 15.9551 15.9821 15.9615 15.9949C16.3406 16.6503 16.5591 17.4085 16.5591 18.2181C16.5591 19.0277 16.3406 19.7859 15.9615 20.4413C15.9615 20.4477 15.9615 20.4541 15.9551 20.467H15.968Z" fill="#ECD996"/>
</svg>
