<svg width="27" height="33" viewBox="0 0 27 33" fill="none" xmlns="http://www.w3.org/2000/svg">
<path id="Subtract" fill-rule="evenodd" clip-rule="evenodd" d="M12.6275 32.037H15.4359C15.6051 32.0216 15.7743 32.0068 15.9437 31.992C16.4369 31.9489 16.9316 31.9057 17.4319 31.8457C19.3275 31.6243 21.1731 31.2115 22.8682 30.2754C25.4559 28.8459 26.7498 26.6414 26.7398 23.6718C26.7398 21.5981 26.158 19.6654 25.2854 17.8132C23.5 14.0081 20.9725 10.7969 17.5623 8.33064C17.0668 7.97149 16.5335 7.66447 15.9722 7.3413C15.7154 7.19345 15.4527 7.04223 15.1851 6.88108C15.2019 6.87097 15.2255 6.86199 15.252 6.85187C15.3047 6.83176 15.3691 6.80716 15.4158 6.76029C16.9404 5.25033 17.9434 3.44845 18.4549 1.3647C18.5151 1.13318 18.5352 0.891582 18.5251 0.649988C18.5151 0.217134 18.3747 0.0661372 17.9534 0.0862699C17.3717 0.116469 16.7899 0.176869 16.2283 0.307732C15.2453 0.529192 14.2724 0.800983 13.3095 1.08284C12.5272 1.31437 11.7649 1.26404 11.0227 0.972114C10.7668 0.869398 10.5146 0.763042 10.2629 0.656915C9.92257 0.513427 9.58326 0.370357 9.23732 0.237266C8.99659 0.146668 8.74584 0.0762029 8.49509 0.025871C7.66259 -0.125125 7.04074 0.398328 7.02068 1.2439C7.00062 2.10961 7.30152 2.89479 7.67263 3.65984C8.3647 5.08927 9.05677 5.89458 10.5713 7.12268C10.5686 7.12802 10.566 7.13479 10.5631 7.14204C10.5552 7.16207 10.5459 7.18575 10.5312 7.19314C8.49509 8.28031 6.84013 9.82047 5.37575 11.572C3.2895 14.0584 1.6546 16.8065 0.761923 19.9573C0.290511 21.6485 0.0899108 23.3598 0.430932 25.0912C0.872255 27.3561 2.17616 28.9869 4.15208 30.1143C5.86722 31.0908 7.75287 31.5538 9.68867 31.7853C10.2793 31.8527 10.8744 31.893 11.4711 31.9334C11.766 31.9534 12.0613 31.9734 12.3567 31.9967C12.4108 31.9967 12.465 32.0076 12.5192 32.0185C12.5553 32.0257 12.5914 32.033 12.6275 32.037ZM16.6846 17.8388L17.0243 16.6402H15.6474C15.588 16.2986 15.4775 15.9848 15.3161 15.6987C15.2677 15.613 15.2146 15.5308 15.1568 15.4522L16.6846 15.4609L17.0291 14.2526H12.1667H11.9434H10.6769L10.3226 15.5434H12.1667C12.8558 15.5434 13.3621 15.7036 13.6856 16.0239C13.8602 16.1968 13.9877 16.4022 14.0681 16.6402H10.6623L10.3226 17.8388H14.1095C14.0708 17.9893 14.0135 18.1268 13.9379 18.2513C13.7826 18.5036 13.5562 18.6961 13.2585 18.8288C12.9609 18.9614 12.597 19.0277 12.1667 19.0277H10.4439L10.4537 19.974L13.9282 24.191H15.6995V24.1085L12.5258 20.2215L12.5695 20.2118C13.3168 20.1665 13.9201 20.0096 14.3795 19.7411C14.8389 19.4725 15.1738 19.1248 15.384 18.6977C15.5154 18.431 15.6057 18.1447 15.655 17.8388H16.6846Z" fill="#ECD996"/>
</svg>
