<svg width="88" height="88" viewBox="0 0 88 88" fill="none" xmlns="http://www.w3.org/2000/svg">
<circle opacity="0.3" cx="44.0005" cy="44" r="43.5978" transform="rotate(0.530989 44.0005 44)" fill="#ECD996"/>
<circle cx="44.6397" cy="44.6405" r="29.4796" fill="#ECD996"/>
<path d="M35.7251 30.8282C35.7251 29.8615 35.7085 28.9279 35.7306 27.9943C35.7416 27.3756 36.1836 26.8784 36.7912 26.7348C37.3713 26.5967 38.0176 26.8619 38.2883 27.4143C38.4153 27.6739 38.4706 27.9888 38.4816 28.2871C38.5037 29.1213 38.4927 29.9554 38.4927 30.8227C42.4811 30.8227 46.453 30.8227 50.4691 30.8227C50.4691 29.972 50.447 29.1268 50.4802 28.2816C50.4968 27.9501 50.5796 27.5911 50.7398 27.3038C51.0216 26.8011 51.6624 26.5967 52.2093 26.7514C52.7948 26.9116 53.2091 27.3977 53.2257 27.9998C53.2478 28.7788 53.2368 29.5577 53.2368 30.3366C53.2368 30.4913 53.2368 30.6459 53.2368 30.8338C54.1206 30.8338 54.9714 30.889 55.811 30.8227C58.8659 30.5852 61.3629 33.0766 61.1087 36.137C61.0811 36.4684 61.0977 36.7999 61.0867 37.1314C61.0701 37.5678 60.8823 37.7611 60.4514 37.7777C60.3519 37.7832 60.247 37.7777 60.1475 37.7777C49.7013 37.7777 39.255 37.7777 28.8088 37.7777C27.9856 37.7777 27.8641 37.6617 27.8752 36.822C27.8862 36.0928 27.8254 35.3415 27.9636 34.6344C28.4442 32.2424 30.687 30.6404 33.1066 30.8227C33.9518 30.878 34.8025 30.8282 35.7251 30.8282Z" fill="black"/>
<path d="M44.5347 40.2218C49.7219 40.2218 54.9091 40.2218 60.1019 40.2218C61.0465 40.2218 61.1239 40.2991 61.1239 41.2658C61.1239 45.8951 61.1294 50.5189 61.1183 55.1482C61.1183 55.8387 61.1625 56.5403 61.03 57.2087C60.5494 59.5951 58.3121 61.2137 55.8869 61.0149C55.6715 60.9983 55.456 60.9872 55.2406 60.9872C48.0923 60.9872 40.944 60.9872 33.7957 60.9817C33.1051 60.9817 32.398 61.037 31.7351 60.8989C29.2934 60.4072 27.6748 58.1754 27.8903 55.7006C27.9069 55.4851 27.9124 55.2697 27.9124 55.0542C27.9124 50.425 27.9124 45.8012 27.9124 41.1719C27.9124 40.3323 28.0229 40.2162 28.846 40.2162C34.0719 40.2218 39.3033 40.2218 44.5347 40.2218ZM42.7007 46.199C42.6896 47.2099 43.4962 48.044 44.5126 48.0717C45.5235 48.0993 46.4019 47.243 46.4019 46.2211C46.4019 45.2156 45.5677 44.3815 44.5568 44.376C43.5403 44.3704 42.7062 45.188 42.7007 46.199ZM53.7712 46.21C53.7656 45.1936 52.9481 44.376 51.9261 44.376C50.9152 44.376 50.081 45.1991 50.0699 46.21C50.0589 47.2265 50.9262 48.0882 51.9427 48.0717C52.9646 48.0551 53.7767 47.2265 53.7712 46.21ZM53.7712 53.618C53.7767 52.6015 52.9702 51.7729 51.9537 51.7563C50.9373 51.7342 50.07 52.596 50.0755 53.6124C50.081 54.6178 50.9152 55.4465 51.9261 55.452C52.937 55.452 53.7656 54.6344 53.7712 53.618ZM42.7007 53.5682C42.6841 54.5847 43.4906 55.4244 44.5016 55.4465C45.5346 55.4686 46.3908 54.6399 46.4019 53.618C46.4129 52.6181 45.5843 51.7729 44.5734 51.7563C43.568 51.7342 42.7172 52.5628 42.7007 53.5682ZM39.005 53.618C39.0105 52.596 38.2095 51.7729 37.1875 51.7563C36.1766 51.7397 35.3369 52.5518 35.3259 53.5682C35.3093 54.6123 36.1269 55.4465 37.1599 55.4465C38.1819 55.4465 38.9995 54.6344 39.005 53.618ZM35.3259 46.2211C35.3259 47.243 36.1379 48.0606 37.1544 48.0717C38.1653 48.0772 38.9939 47.2596 39.005 46.2431C39.016 45.2046 38.1874 44.3704 37.1544 44.376C36.1379 44.3815 35.3259 45.1991 35.3259 46.2211Z" fill="black"/>
</svg>
