<svg width="48" height="48" viewBox="0 0 48 48" fill="none" xmlns="http://www.w3.org/2000/svg">
<path d="M43.3177 15.6823C43.1259 16.1799 42.7475 16.4288 42.2551 16.605C36.413 18.6733 30.571 20.752 24.7342 22.841C24.2469 23.0173 23.8011 23.0276 23.3086 22.8514C17.4251 20.7468 11.5365 18.6526 5.64258 16.5687C5.18123 16.4028 4.87021 16.1281 4.68359 15.6875C4.68359 15.5112 4.68359 15.335 4.68359 15.1588C4.87021 14.6611 5.2538 14.4123 5.74625 14.2412C11.6298 12.1781 17.4977 10.1046 23.3657 8.02598C23.8063 7.87047 24.2054 7.87047 24.646 8.0208C30.514 10.0995 36.3819 12.1729 42.2551 14.2361C42.7475 14.4071 43.1259 14.6611 43.3177 15.1536C43.3177 15.3298 43.3177 15.5061 43.3177 15.6823Z" fill="#E2C86D"/>
<path d="M12.6396 21.4468C14.1169 21.9703 15.5114 22.4628 16.9006 22.9604C18.8393 23.6498 20.778 24.3393 22.7167 25.0339C23.5513 25.3346 24.3807 25.3553 25.2204 25.0546C28.4447 23.9039 31.6741 22.7583 34.9036 21.6127C35.0332 21.566 35.1628 21.5245 35.3338 21.4623C35.3442 21.6127 35.3598 21.7319 35.3598 21.8511C35.3598 23.2974 35.3494 24.7436 35.3649 26.1899C35.3753 26.9415 35.085 27.5273 34.5304 28.0042C33.6595 28.7454 32.6228 29.1601 31.5549 29.4971C28.3462 30.5027 25.0597 30.7515 21.7163 30.4923C19.6169 30.3265 17.5486 29.974 15.5891 29.1809C14.8427 28.8802 14.1377 28.4448 13.469 27.9886C12.8677 27.5739 12.6188 26.9363 12.6292 26.1847C12.65 24.754 12.6344 23.3181 12.6344 21.8822C12.6396 21.763 12.6396 21.6438 12.6396 21.4468Z" fill="#E2C86D"/>
<path d="M40.6011 19.5908C40.6011 19.7722 40.6011 19.9122 40.6011 20.047C40.6011 23.0535 40.6063 26.0601 40.5959 29.0666C40.5959 29.3258 40.6581 29.4917 40.8706 29.6628C42.0525 30.601 42.0214 32.3168 40.8395 33.2551C40.7151 33.3536 40.6115 33.5557 40.6115 33.706C40.5959 35.427 40.6011 37.1532 40.6011 38.8742C40.6011 39.4807 40.2693 39.9317 39.7458 40.0561C39.0045 40.2375 38.3462 39.7036 38.341 38.9053C38.3358 37.1947 38.3358 35.4841 38.341 33.7734C38.341 33.5298 38.284 33.3691 38.0766 33.2084C36.8947 32.3013 36.9103 30.544 38.1025 29.6317C38.284 29.4917 38.3462 29.3569 38.3462 29.134C38.341 26.34 38.3462 23.5512 38.3358 20.7572C38.3358 20.4669 38.4188 20.3476 38.6935 20.2595C39.3207 20.0677 39.9428 19.8293 40.6011 19.5908Z" fill="#E2C86D"/>
</svg>
