<svg width="35" height="31" viewBox="0 0 35 31" fill="none" xmlns="http://www.w3.org/2000/svg">
<path id="Vector" d="M16.2357 27.1033C16.2357 26.9126 16.2357 26.7781 16.2357 26.6435C16.2357 21.2666 16.2302 15.8897 16.2411 10.5128C16.2411 10.1988 16.1597 10.0474 15.8773 9.91846C15.1768 9.60448 14.661 9.06623 14.2538 8.39902C14.1832 8.28688 13.9931 8.16914 13.8737 8.18035C12.0112 8.37659 10.1488 8.59526 8.28632 8.81392C8.2646 8.81392 8.24288 8.83635 8.18858 8.86438C8.25374 9.00455 8.31347 9.15033 8.38406 9.2905C9.61664 11.836 10.8166 14.3983 12.0927 16.9213C12.5271 17.7736 12.5379 18.581 12.3099 19.4444C11.7289 21.6479 9.77411 23.2178 7.55872 23.229C6.4293 23.2346 5.28359 23.2794 4.17047 23.1393C1.87905 22.8533 0.0437527 20.6667 0.000313572 18.2726C-0.00511632 17.9754 0.0600423 17.6502 0.19036 17.3867C1.80304 14.017 3.43743 10.6586 5.05554 7.29448C5.30531 6.77865 5.67998 6.50953 6.23925 6.44785C8.63383 6.18433 11.023 5.90399 13.4176 5.63487C13.7216 5.60123 13.8737 5.48909 13.9823 5.1639C14.3135 4.14907 14.9759 3.40897 15.9207 2.96603C16.1814 2.84269 16.2574 2.69691 16.2411 2.42218C16.2194 2.04652 16.2302 1.67087 16.2357 1.29521C16.252 0.560721 16.7841 0.00564847 17.4683 4.16803e-05C18.1633 -0.00556511 18.7171 0.555114 18.7334 1.30642C18.7443 1.72133 18.7171 2.14184 18.7443 2.55674C18.7497 2.68009 18.8583 2.8539 18.9615 2.90436C19.7162 3.26319 20.3081 3.80705 20.7479 4.53594C20.8131 4.64807 21.014 4.749 21.1389 4.73778C22.833 4.55836 24.5271 4.35652 26.2212 4.15468C26.9977 4.06497 27.7742 3.96965 28.5507 3.88555C29.1642 3.81827 29.6149 4.08179 29.8918 4.64807C31.5371 8.057 33.1824 11.4715 34.833 14.8861C35.1045 15.4468 34.9905 16.0243 34.8711 16.5849C34.3987 18.794 32.7045 20.4144 30.4891 20.6106C29.224 20.7227 27.9317 20.7059 26.6719 20.5602C24.4077 20.2966 22.5832 18.1436 22.5072 15.7832C22.4963 15.4524 22.5724 15.0823 22.7135 14.7852C23.919 12.2397 25.1516 9.71101 26.3733 7.17674C26.433 7.04778 26.4873 6.91322 26.5688 6.7338C25.5534 6.84594 24.5868 6.95246 23.6203 7.0646C22.8819 7.1487 22.1434 7.2272 21.4104 7.33373C21.2909 7.35055 21.1226 7.46829 21.0846 7.58043C20.699 8.74103 19.9823 9.57084 18.8855 10.053C18.8366 10.0754 18.7986 10.1091 18.7551 10.1371C18.7551 15.7832 18.7551 21.4292 18.7551 27.1257C18.9018 27.1257 19.0429 27.1257 19.1787 27.1257C21.5352 27.1257 23.8918 27.1145 26.2484 27.1313C27.595 27.1425 28.643 27.7593 29.3977 28.9087C29.6909 29.3572 29.7615 29.8282 29.5063 30.316C29.2511 30.7982 28.8384 31 28.3117 31C21.1009 31 13.8845 31 6.67364 31C6.14695 31 5.73427 30.7982 5.47907 30.3104C5.22386 29.8226 5.29445 29.3516 5.5931 28.9031C6.34785 27.7537 7.40125 27.1369 8.74786 27.1313C11.0936 27.1145 13.4339 27.1257 15.7796 27.1257C15.9099 27.1033 16.0511 27.1033 16.2357 27.1033ZM31.7054 14.1852C30.7063 12.1219 29.7344 10.1259 28.7298 8.0514C27.7145 10.1483 26.7479 12.15 25.7597 14.1852C27.7742 14.1852 29.7072 14.1852 31.7054 14.1852ZM9.2094 16.77C8.21573 14.7179 7.24378 12.7162 6.23925 10.6361C5.22386 12.7275 4.25735 14.7347 3.26911 16.77C5.26188 16.77 7.20034 16.77 9.2094 16.77ZM18.7334 6.44225C18.7226 5.73579 18.1633 5.1639 17.4846 5.1639C16.7895 5.1639 16.2248 5.76383 16.2411 6.4871C16.2574 7.18795 16.8275 7.75424 17.5117 7.74302C18.185 7.73181 18.7443 7.1431 18.7334 6.44225Z" fill="#ECD996"/>
</svg>
